# Blender v2.80 (sub 75) OBJ File: 'ld45.blend'
# www.blender.org
mtllib console.mtl
o Cube.002_Cube.001
v 5.125105 0.128563 6.789087
v 5.125105 0.450385 6.789087
v 5.125105 0.128563 6.033333
v 5.125105 0.450385 6.033333
v 5.611518 0.128563 6.789087
v 5.595181 0.415164 6.753866
v 5.611518 0.128563 6.033333
v 5.595181 0.415164 6.068554
v 5.170130 0.455448 6.703082
v 5.150191 0.807312 6.692818
v 5.170130 0.455448 6.317713
v 5.150191 0.807312 6.327977
v 5.555500 0.455448 6.703082
v 5.570804 0.677789 6.565400
v 5.555500 0.455448 6.317713
v 5.570804 0.677789 6.455394
v 5.151256 0.474939 6.298839
v 5.151256 0.474939 6.721956
v 5.583896 0.604462 6.448966
v 5.583896 0.604462 6.571829
v 5.515032 0.807312 6.327977
v 5.574374 0.474939 6.298839
v 5.574374 0.474939 6.721956
v 5.515032 0.807312 6.692818
v 5.522209 0.767111 6.365440
v 5.567196 0.515140 6.343351
v 5.567196 0.515140 6.677444
v 5.522209 0.767111 6.655354
v 5.516602 0.763835 6.368494
v 5.560419 0.518416 6.346979
v 5.560419 0.518416 6.673816
v 5.516602 0.763835 6.652301
v 5.532246 0.746265 6.384868
v 5.569789 0.535986 6.366433
v 5.569789 0.535986 6.654362
v 5.532246 0.746265 6.635927
v 5.555818 0.713587 6.415321
v 5.581692 0.568664 6.402616
v 5.581692 0.568664 6.618179
v 5.555818 0.713587 6.605474
v 5.302352 0.432087 6.239217
v 5.302352 0.503102 6.239217
v 5.302352 0.432087 6.095390
v 5.302352 0.503102 6.095390
v 5.499721 0.432087 6.234044
v 5.499721 0.503102 6.234044
v 5.499721 0.432087 6.090217
v 5.499721 0.503102 6.090217
v 5.611518 0.450385 6.033333
v 5.595181 0.163784 6.753866
v 5.595181 0.163784 6.068554
v 5.611518 0.450385 6.789087
v 5.611518 0.155204 6.762446
v 5.611518 0.155204 6.059974
v 5.611518 0.423744 6.059974
v 5.611518 0.423744 6.762446
v 5.571599 0.200485 6.722403
v 5.571599 0.381432 6.722403
v 5.571599 0.200485 6.429846
v 5.571599 0.381432 6.429846
v 5.616909 0.200485 6.722403
v 5.616909 0.381432 6.722403
v 5.616909 0.200485 6.429846
v 5.616909 0.381432 6.429846
v 5.413158 0.521186 6.208254
v 5.357560 0.521186 6.190189
v 5.357560 0.521186 6.131730
v 5.413158 0.521186 6.113664
v 5.447520 0.521186 6.160959
v 5.397791 0.551920 6.160959
v 5.450669 0.496321 6.178140
v 5.450669 0.496321 6.143779
v 5.397791 0.496321 6.216558
v 5.430471 0.496321 6.205939
v 5.344913 0.496321 6.178140
v 5.365111 0.496321 6.205939
v 5.365111 0.496321 6.115979
v 5.344913 0.496321 6.143779
v 5.430471 0.496321 6.115979
v 5.397791 0.496321 6.105361
v 5.436054 0.525552 6.188758
v 5.383176 0.525552 6.205939
v 5.350496 0.525552 6.160959
v 5.383176 0.525552 6.115979
v 5.436054 0.525552 6.133160
v 5.406824 0.543617 6.188758
v 5.427021 0.543617 6.160959
v 5.374144 0.543617 6.178140
v 5.374144 0.543617 6.143779
v 5.406824 0.543617 6.133160
vt 0.864020 0.699823
vt 0.864191 0.675109
vt 0.901544 0.675367
vt 0.901374 0.700081
vt 0.904641 0.696797
vt 0.904884 0.678533
vt 0.953125 0.678393
vt 0.952882 0.696657
vt 0.956222 0.699823
vt 0.956392 0.675109
vt 0.993746 0.675367
vt 0.993575 0.700081
vt 0.901378 0.640066
vt 0.956227 0.639808
vt 0.743245 0.990316
vt 0.653159 0.967925
vt 0.677957 0.869496
vt 0.772004 0.876165
vt 0.772005 0.759647
vt 0.678603 0.769703
vt 0.650336 0.672596
vt 0.739223 0.647030
vt 0.578163 0.868850
vt 0.578809 0.769057
vt 0.779476 0.870967
vt 0.878974 0.907876
vt 0.881249 0.916689
vt 0.779476 0.764845
vt 0.878974 0.727937
vt 0.881249 0.719124
vt 0.688954 0.859520
vt 0.761265 0.864233
vt 0.760789 0.772166
vt 0.688845 0.779069
vt 0.690617 0.857592
vt 0.759067 0.862292
vt 0.758929 0.774046
vt 0.690843 0.781036
vt 0.833319 0.760116
vt 0.833743 0.776304
vt 0.800957 0.777164
vt 0.800533 0.760975
vt 0.784764 0.777164
vt 0.800957 0.822186
vt 0.784764 0.822186
vt 0.801382 0.838374
vt 0.833744 0.821326
vt 0.834168 0.837514
vt 0.849937 0.821326
vt 0.849937 0.776304
vt 0.903420 0.677272
vt 0.903339 0.698226
vt 0.954346 0.697917
vt 0.954427 0.676964
vt 0.906238 0.732890
vt 0.906238 0.709502
vt 0.912095 0.709502
vt 0.912095 0.732890
vt 0.949908 0.709502
vt 0.949908 0.732890
vt 0.955765 0.709502
vt 0.955765 0.732890
vt 0.912095 0.738747
vt 0.949908 0.738746
vt 0.912095 0.703646
vt 0.949908 0.703646
vt 0.832721 0.875171
vt 0.825066 0.873984
vt 0.830538 0.868451
vt 0.841710 0.862799
vt 0.838216 0.869712
vt 0.834645 0.862799
vt 0.832721 0.850426
vt 0.838216 0.855885
vt 0.830538 0.857146
vt 0.818176 0.855152
vt 0.825067 0.851613
vt 0.823892 0.859305
vt 0.818176 0.870445
vt 0.816939 0.862799
vt 0.823892 0.866292
vt 0.828701 0.862799
vt 0.808198 0.869453
vt 0.808198 0.856144
vt 0.816037 0.845356
vt 0.828694 0.841243
vt 0.841377 0.845364
vt 0.849199 0.856131
vt 0.849199 0.869466
vt 0.841377 0.880233
vt 0.828694 0.884354
vt 0.816037 0.880241
vt 0.936124 0.845538
vt 0.903258 0.843029
vt 0.903585 0.794405
vt 0.936294 0.791871
vt 0.867474 0.877941
vt 0.967544 0.884070
vt 0.976926 0.895079
vt 0.856381 0.887552
vt 0.967729 0.752885
vt 0.976926 0.741806
vt 0.867677 0.760042
vt 0.856394 0.750526
vt 0.885925 0.861767
vt 0.951801 0.865807
vt 0.952220 0.771369
vt 0.886394 0.775963
vn 0.0000 0.0000 -1.0000
vn 1.0000 0.0000 0.0000
vn 0.0000 0.0000 1.0000
vn 0.0000 1.0000 0.0000
vn 0.0000 0.0873 -0.9962
vn 0.0000 0.0873 0.9962
vn 0.0000 -0.6956 -0.7184
vn 0.7184 -0.6956 0.0000
vn 0.0000 -0.6956 0.7184
vn 0.9844 0.1758 0.0000
vn 0.4749 0.0076 0.8800
vn 0.4353 0.9003 0.0000
vn 0.5045 -0.8634 0.0000
vn 0.4748 0.0076 -0.8800
vn -1.0000 0.0000 0.0000
vn -0.0262 0.0000 -0.9997
vn 0.0262 0.0000 0.9997
vn 0.4649 0.8853 0.0000
vn 0.4650 0.0000 0.8853
vn 0.4649 -0.8853 0.0000
vn 0.4650 0.0000 -0.8853
vn 0.0000 -1.0000 0.0000
vn 0.4090 0.6617 0.6284
vn -0.4713 0.6617 0.5831
vn -0.7002 0.6617 -0.2680
vn 0.0385 0.6617 -0.7488
vn 0.7241 0.6617 -0.1947
vn 0.2680 0.9435 -0.1947
vn 0.4911 0.7947 -0.3568
vn 0.4089 0.6617 -0.6284
vn -0.1024 0.9435 -0.3151
vn -0.1876 0.7947 -0.5773
vn -0.4713 0.6617 -0.5831
vn -0.3313 0.9435 0.0000
vn -0.6071 0.7947 0.0000
vn -0.7002 0.6617 0.2680
vn -0.1024 0.9435 0.3151
vn -0.1876 0.7947 0.5773
vn 0.0385 0.6617 0.7488
vn 0.2680 0.9435 0.1947
vn 0.4911 0.7947 0.3568
vn 0.7241 0.6617 0.1947
vn 0.8897 0.3304 -0.3151
vn 0.7947 0.1876 -0.5773
vn 0.5746 0.3304 -0.7488
vn -0.0248 0.3304 -0.9435
vn -0.3035 0.1876 -0.9342
vn -0.5346 0.3304 -0.7779
vn -0.9050 0.3304 -0.2680
vn -0.9822 0.1876 0.0000
vn -0.9050 0.3304 0.2680
vn -0.5346 0.3304 0.7779
vn -0.3035 0.1876 0.9342
vn -0.0247 0.3304 0.9435
vn 0.5746 0.3304 0.7488
vn 0.7947 0.1876 0.5773
vn 0.8897 0.3304 0.3151
vn 0.3066 0.1256 -0.9435
vn -0.8026 0.1256 -0.5831
vn -0.8026 0.1256 0.5831
vn 0.3066 0.1256 0.9435
vn 0.9921 0.1256 0.0000
vn 0.9936 0.0874 -0.0710
vn 0.9624 0.2626 -0.0689
vn 0.9624 0.2626 0.0689
vn 0.9936 0.0874 0.0710
vn 0.8483 0.4454 -0.2864
vn 0.9463 -0.1363 -0.2932
vn 0.8403 0.4113 0.3531
vn 0.9147 -0.2528 0.3153
vn 0.9463 -0.1363 0.2932
vn 0.8403 0.4113 -0.3532
vn 0.8483 0.4454 0.2864
vn 0.9147 -0.2528 -0.3153
vn 0.9044 0.3727 -0.2076
vn 0.9770 -0.0424 -0.2091
vn 0.9770 -0.0424 0.2091
vn 0.9044 0.3727 0.2076
usemtl None
s off
f 3/1/1 4/2/1 49/3/1 7/4/1
f 51/5/2 8/6/2 6/7/2 50/8/2
f 5/9/3 52/10/3 2/11/3 1/12/3
f 49/3/4 4/13/4 2/14/4 52/10/4
f 17/15/5 12/16/5 21/17/5 22/18/5
f 23/19/6 24/20/6 10/21/6 18/22/6
f 21/17/4 12/23/4 10/24/4 24/20/4
f 15/25/7 11/26/7 17/27/7 22/18/7
f 13/28/8 15/25/8 22/18/8 23/19/8
f 9/29/9 13/28/9 23/19/9 18/30/9
f 25/31/10 26/32/10 22/18/10 21/17/10
f 26/32/10 27/33/10 23/19/10 22/18/10
f 28/34/10 25/31/10 21/17/10 24/20/10
f 27/33/10 28/34/10 24/20/10 23/19/10
f 29/35/11 30/36/11 26/32/11 25/31/11
f 30/36/12 31/37/12 27/33/12 26/32/12
f 32/38/13 29/35/13 25/31/13 28/34/13
f 31/37/14 32/38/14 28/34/14 27/33/14
f 41/39/15 42/40/15 44/41/15 43/42/15
f 43/43/16 44/41/16 48/44/16 47/45/16
f 47/46/2 48/44/2 46/47/2 45/48/2
f 45/49/17 46/47/17 42/40/17 41/50/17
f 48/44/4 44/41/4 42/40/4 46/47/4
f 55/51/2 54/52/2 7/4/2 49/3/2
f 54/52/2 53/53/2 5/9/2 7/4/2
f 56/54/2 55/51/2 49/3/2 52/10/2
f 53/53/2 56/54/2 52/10/2 5/9/2
f 51/5/18 50/8/18 53/53/18 54/52/18
f 8/6/19 51/5/19 54/52/19 55/51/19
f 6/7/20 8/6/20 55/51/20 56/54/20
f 50/8/21 6/7/21 56/54/21 53/53/21
f 59/55/1 60/56/1 64/57/1 63/58/1
f 63/58/2 64/57/2 62/59/2 61/60/2
f 61/60/3 62/59/3 58/61/3 57/62/3
f 59/63/22 63/58/22 61/60/22 57/64/22
f 64/57/4 60/65/4 58/66/4 62/59/4
f 65/67/23 81/68/23 86/69/23
f 66/70/24 82/71/24 88/72/24
f 67/73/25 83/74/25 89/75/25
f 68/76/26 84/77/26 90/78/26
f 69/79/27 85/80/27 87/81/27
f 87/81/28 90/78/28 70/82/28
f 87/81/29 85/80/29 90/78/29
f 85/80/30 68/76/30 90/78/30
f 90/78/31 89/75/31 70/82/31
f 90/78/32 84/77/32 89/75/32
f 84/77/33 67/73/33 89/75/33
f 89/75/34 88/72/34 70/82/34
f 89/75/35 83/74/35 88/72/35
f 83/74/36 66/70/36 88/72/36
f 88/72/37 86/69/37 70/82/37
f 88/72/38 82/71/38 86/69/38
f 82/71/39 65/67/39 86/69/39
f 86/69/40 87/81/40 70/82/40
f 86/69/41 81/68/41 87/81/41
f 81/68/42 69/79/42 87/81/42
f 72/83/43 85/80/43 69/79/43
f 72/83/44 79/84/44 85/80/44
f 79/84/45 68/76/45 85/80/45
f 80/85/46 84/77/46 68/76/46
f 80/85/47 77/86/47 84/77/47
f 77/86/48 67/73/48 84/77/48
f 78/87/49 83/74/49 67/73/49
f 78/87/50 75/88/50 83/74/50
f 75/88/51 66/70/51 83/74/51
f 76/89/52 82/71/52 66/70/52
f 76/89/53 73/90/53 82/71/53
f 73/90/54 65/67/54 82/71/54
f 74/91/55 81/68/55 65/67/55
f 74/91/56 71/92/56 81/68/56
f 71/92/57 69/79/57 81/68/57
f 79/84/58 80/85/58 68/76/58
f 77/86/59 78/87/59 67/73/59
f 75/88/60 76/89/60 66/70/60
f 73/90/61 74/91/61 65/67/61
f 71/92/62 72/83/62 69/79/62
s 1
f 19/93/63 16/94/64 14/95/65 20/96/66
f 33/97/67 34/98/68 30/99/69 29/100/70
f 34/98/68 35/101/71 31/102/72 30/99/69
f 36/103/73 33/97/67 29/100/70 32/104/74
f 35/101/71 36/103/73 32/104/74 31/102/72
f 37/105/75 38/106/76 34/98/68 33/97/67
f 38/106/76 39/107/77 35/101/71 34/98/68
f 40/108/78 37/105/75 33/97/67 36/103/73
f 39/107/77 40/108/78 36/103/73 35/101/71
f 16/94/64 19/93/63 38/106/76 37/105/75
f 19/93/63 20/96/66 39/107/77 38/106/76
f 14/95/65 16/94/64 37/105/75 40/108/78
f 20/96/66 14/95/65 40/108/78 39/107/77
