# Blender v2.80 (sub 75) OBJ File: 'ld45.blend'
# www.blender.org
mtllib cryopod.mtl
o Cylinder.003_Cylinder
v 4.073537 0.338066 2.479095
v 4.197614 0.338066 2.491315
v 4.316922 0.338066 2.527507
v 4.426877 0.338066 2.586279
v 4.523253 0.338066 2.665373
v 4.602347 0.338066 2.761750
v 4.661119 0.338066 2.871704
v 4.697311 0.338066 2.991013
v 4.709532 0.338066 3.115089
v 4.697311 0.338066 3.239165
v 4.661119 0.338066 3.358473
v 4.602347 0.338066 3.468428
v 4.523253 0.338066 3.564805
v 4.426877 0.338066 3.643899
v 4.316922 0.338066 3.702671
v 4.197614 0.338066 3.738863
v 4.073537 0.338066 3.751083
v 3.949461 0.338066 3.738863
v 3.830153 0.338066 3.702671
v 3.720197 0.338066 3.643899
v 3.623821 0.338066 3.564805
v 3.544727 0.338066 3.468428
v 3.485955 0.338066 3.358473
v 3.449763 0.338066 3.239165
v 3.437543 0.338066 3.115088
v 3.449764 0.338066 2.991012
v 3.485955 0.338066 2.871704
v 3.544728 0.338066 2.761749
v 3.623822 0.338066 2.665372
v 3.720199 0.338066 2.586278
v 3.830154 0.338066 2.527506
v 3.949462 0.338066 2.491315
v 4.073537 2.450271 2.525692
v 4.188523 2.450271 2.537017
v 4.299090 2.450271 2.570557
v 4.400989 2.450271 2.625023
v 4.490304 2.450271 2.698323
v 4.563603 2.450271 2.787638
v 4.618069 2.450271 2.889537
v 4.651609 2.450271 3.000103
v 4.662934 2.450271 3.115089
v 4.651609 2.450271 3.230074
v 4.618069 2.450271 3.340641
v 4.563603 2.450271 3.442540
v 4.490304 2.450271 3.531855
v 4.400989 2.450271 3.605154
v 4.299089 2.450271 3.659621
v 4.188523 2.450271 3.693161
v 4.073537 2.450271 3.704486
v 3.958551 2.450271 3.693161
v 3.847985 2.450271 3.659620
v 3.746086 2.450271 3.605154
v 3.656771 2.450271 3.531855
v 3.583472 2.450271 3.442540
v 3.529006 2.450271 3.340641
v 3.495466 2.450271 3.230074
v 3.484141 2.450271 3.115088
v 3.495466 2.450271 3.000103
v 3.529006 2.450271 2.889536
v 3.583472 2.450271 2.787637
v 3.656771 2.450271 2.698322
v 3.746087 2.450271 2.625023
v 3.847986 2.450271 2.570557
v 3.958553 2.450271 2.537017
v 4.073537 -0.112682 2.354746
v 4.221873 -0.112682 2.369356
v 4.194024 2.678929 2.509363
v 4.073537 2.678929 2.497496
v 4.073537 2.467991 2.455810
v 4.213185 0.341568 2.413032
v 4.364508 -0.112682 2.412624
v 4.309880 2.678929 2.544508
v 4.347466 0.341568 2.453766
v 4.495961 -0.112682 2.482887
v 4.416654 2.678929 2.601579
v 4.471220 0.341568 2.519914
v 4.611181 -0.112682 2.577446
v 4.510242 2.678929 2.678385
v 4.579692 0.341568 2.608934
v 4.705739 -0.112682 2.692665
v 4.587047 2.678929 2.771973
v 4.668712 0.341568 2.717406
v 4.776002 -0.112682 2.824119
v 4.644119 2.678929 2.878747
v 4.734860 0.341568 2.841160
v 4.819270 -0.112682 2.966753
v 4.679263 2.678929 2.994602
v 4.775594 0.341568 2.975441
v 4.833880 -0.112682 3.115089
v 4.691130 2.678929 3.115089
v 4.789348 0.341568 3.115089
v 4.819270 -0.112682 3.263424
v 4.679263 2.678929 3.235575
v 4.775594 0.341568 3.254736
v 4.776002 -0.112682 3.406059
v 4.644119 2.678929 3.351431
v 4.734860 0.341568 3.389018
v 4.705739 -0.112682 3.537513
v 4.587047 2.678929 3.458205
v 4.668712 0.341568 3.512772
v 4.611181 -0.112682 3.652732
v 4.510242 2.678929 3.551793
v 4.579692 0.341568 3.621243
v 4.495961 -0.112682 3.747291
v 4.416654 2.678929 3.628598
v 4.471220 0.341568 3.710264
v 4.364508 -0.112682 3.817554
v 4.309880 2.678929 3.685670
v 4.347466 0.341568 3.776412
v 4.221873 -0.112682 3.860822
v 4.194024 2.678929 3.720815
v 4.213185 0.341568 3.817146
v 4.073537 -0.112682 3.875432
v 4.073537 2.678929 3.732682
v 4.073537 0.341568 3.830900
v 3.925202 -0.112682 3.860822
v 3.953051 2.678929 3.720815
v 3.933889 0.341568 3.817145
v 3.782567 -0.112682 3.817554
v 3.837195 2.678929 3.685670
v 3.799608 0.341568 3.776412
v 3.651113 -0.112682 3.747290
v 3.730421 2.678929 3.628598
v 3.675854 0.341568 3.710264
v 3.535894 -0.112682 3.652732
v 3.636833 2.678929 3.551793
v 3.567382 0.341568 3.621243
v 3.441335 -0.112682 3.537512
v 3.560028 2.678929 3.458205
v 3.478362 0.341568 3.512772
v 3.371072 -0.112682 3.406059
v 3.502956 2.678929 3.351431
v 3.412214 0.341568 3.389017
v 3.327805 -0.112682 3.263424
v 3.467812 2.678929 3.235575
v 3.371480 0.341568 3.254736
v 3.313195 -0.112682 3.115088
v 3.455945 2.678929 3.115088
v 3.357727 0.341568 3.115088
v 3.327805 -0.112682 2.966753
v 3.467812 2.678929 2.994602
v 3.371481 0.341568 2.975441
v 3.371073 -0.112682 2.824118
v 3.502956 2.678929 2.878746
v 3.412215 0.341568 2.841159
v 3.441336 -0.112682 2.692665
v 3.560028 2.678929 2.771972
v 3.478363 0.341568 2.717405
v 3.535895 -0.112682 2.577445
v 3.636834 2.678929 2.678384
v 3.567383 0.341568 2.608934
v 3.651114 -0.112682 2.482887
v 3.730422 2.678929 2.601579
v 3.675855 0.341568 2.519913
v 3.782568 -0.112682 2.412624
v 3.837196 2.678929 2.544507
v 3.799609 0.341568 2.453765
v 3.925203 -0.112682 2.369356
v 3.953052 2.678929 2.509363
v 3.933891 0.341568 2.413032
v 4.073537 0.341568 2.399278
v 4.202157 2.467991 2.468478
v 4.325832 2.467991 2.505994
v 4.439813 2.467991 2.566918
v 4.539718 2.467991 2.648908
v 4.621708 2.467991 2.748813
v 4.682632 2.467991 2.862794
v 4.720149 2.467991 2.986470
v 4.732816 2.467991 3.115089
v 4.720149 2.467991 3.243708
v 4.682632 2.467991 3.367384
v 4.621708 2.467991 3.481365
v 4.539718 2.467991 3.581270
v 4.439813 2.467991 3.663259
v 4.325832 2.467991 3.724183
v 4.202156 2.467991 3.761700
v 4.073537 2.467991 3.774368
v 3.944918 2.467991 3.761700
v 3.821242 2.467991 3.724183
v 3.707261 2.467991 3.663259
v 3.607357 2.467991 3.581269
v 3.525367 2.467991 3.481364
v 3.464443 2.467991 3.367383
v 3.426926 2.467991 3.243707
v 3.414258 2.467991 3.115088
v 3.426926 2.467991 2.986469
v 3.464443 2.467991 2.862793
v 3.525367 2.467991 2.748812
v 3.607357 2.467991 2.648908
v 3.707262 2.467991 2.566918
v 3.821243 2.467991 2.505994
v 3.944919 2.467991 2.468477
v 4.378929 0.335896 3.557659
v 4.353041 2.448101 3.518914
v 4.390382 0.336414 2.651920
v 4.364493 2.448619 2.690664
v 4.426877 0.244404 3.643899
v 4.378929 0.242235 3.557659
v 4.426877 -0.051595 2.586279
v 4.390382 -0.053246 2.651920
v 4.728295 0.410881 2.841160
v 4.654554 0.407379 2.871704
v 4.769028 0.494123 2.975441
v 4.690746 0.490621 2.991013
v 4.782783 0.510542 3.115089
v 4.702966 0.507039 3.115089
v 4.769028 0.494123 3.254736
v 4.690746 0.490621 3.239165
v 4.728295 0.410881 3.389018
v 4.654554 0.407379 3.358473
vt 0.070785 0.686183
vt 0.056664 0.679067
vt 0.061493 0.671436
vt 0.074038 0.677763
vt 0.180498 0.558100
vt 0.186369 0.537673
vt 0.197856 0.542289
vt 0.192666 0.560367
vt 0.086011 0.690415
vt 0.087565 0.681528
vt 0.196147 0.518791
vt 0.206506 0.525582
vt 0.101762 0.691609
vt 0.101553 0.682599
vt 0.209461 0.502193
vt 0.218285 0.510900
vt 0.117441 0.689699
vt 0.115476 0.680907
vt 0.225804 0.488534
vt 0.232744 0.498822
vt 0.328131 0.477956
vt 0.347226 0.487980
vt 0.340256 0.498480
vt 0.323359 0.489558
vt 0.132442 0.684757
vt 0.128791 0.676524
vt 0.244541 0.478353
vt 0.249324 0.489822
vt 0.364096 0.501588
vt 0.355164 0.510593
vt 0.146179 0.676964
vt 0.140981 0.669612
vt 0.264940 0.472051
vt 0.267382 0.484255
vt 0.378121 0.518303
vt 0.367522 0.525495
vt 0.158108 0.666623
vt 0.151571 0.660438
vt 0.286207 0.469863
vt 0.286220 0.482334
vt 0.388857 0.537561
vt 0.376873 0.542743
vt 0.167764 0.654156
vt 0.160155 0.649373
vt 0.307534 0.471853
vt 0.305116 0.484121
vt 0.396164 0.558859
vt 0.382836 0.561976
vt 0.174794 0.640076
vt 0.166419 0.636856
vt 0.400420 0.582311
vt 0.384749 0.583257
vt 0.178991 0.624948
vt 0.170170 0.623378
vt 0.416639 0.634583
vt 0.394807 0.655337
vt 0.381125 0.632942
vt 0.387892 0.621222
vt 0.180266 0.609328
vt 0.171324 0.609459
vt 0.395584 0.593801
vt 0.388118 0.592248
vt 0.178544 0.593749
vt 0.169804 0.595593
vt 0.360829 0.624983
vt 0.366049 0.611497
vt 0.380329 0.617804
vt 0.374723 0.628543
vt 0.173832 0.578796
vt 0.165624 0.582300
vt 0.366959 0.654595
vt 0.372440 0.644284
vt 0.166288 0.565067
vt 0.158936 0.570096
vt 0.348937 0.666808
vt 0.342620 0.656298
vt 0.358667 0.642922
vt 0.156226 0.553119
vt 0.150025 0.559455
vt 0.330326 0.676581
vt 0.325628 0.665219
vt 0.144101 0.543417
vt 0.139265 0.550739
vt 0.310172 0.682992
vt 0.307615 0.670929
vt 0.130532 0.536299
vt 0.127129 0.544132
vt 0.289124 0.685457
vt 0.288926 0.673110
vt 0.115560 0.530738
vt 0.113641 0.540146
vt 0.267986 0.683801
vt 0.270189 0.671640
vt 0.099271 0.529535
vt 0.099413 0.538726
vt 0.023681 0.581250
vt 0.030915 0.566118
vt 0.039235 0.571522
vt 0.032540 0.584561
vt 0.247554 0.678065
vt 0.252086 0.666560
vt 0.083481 0.531493
vt 0.085350 0.540252
vt 0.019644 0.597031
vt 0.028772 0.598493
vt 0.228623 0.668443
vt 0.235317 0.658040
vt 0.068691 0.536288
vt 0.071925 0.544289
vt 0.018709 0.613032
vt 0.027820 0.612697
vt 0.211931 0.655301
vt 0.220532 0.646402
vt 0.054180 0.543127
vt 0.059473 0.551107
vt 0.020859 0.628770
vt 0.029672 0.626690
vt 0.198124 0.639149
vt 0.208299 0.632101
vt 0.041916 0.553771
vt 0.048232 0.560120
vt 0.025972 0.643732
vt 0.034191 0.640003
vt 0.187741 0.620607
vt 0.199097 0.615688
vt 0.033849 0.657410
vt 0.041195 0.652174
vt 0.181196 0.600388
vt 0.193297 0.597794
vt 0.044200 0.669340
vt 0.050409 0.662786
vt 0.178752 0.579278
vt 0.191127 0.579112
vt 0.090750 0.709808
vt 0.099326 0.989316
vt 0.084042 0.989818
vt 0.074256 0.710349
vt 0.107245 0.709337
vt 0.114613 0.988880
vt 0.123742 0.708938
vt 0.129902 0.988510
vt 0.140241 0.708610
vt 0.145192 0.988206
vt 0.156741 0.708354
vt 0.160484 0.987968
vt 0.173242 0.708168
vt 0.175776 0.987796
vt 0.189744 0.708055
vt 0.191069 0.987691
vt 0.206246 0.708012
vt 0.206362 0.987652
vt 0.222748 0.708041
vt 0.221655 0.987678
vt 0.239250 0.708141
vt 0.236948 0.987771
vt 0.255751 0.708313
vt 0.252240 0.987930
vt 0.272252 0.708556
vt 0.267532 0.988155
vt 0.288751 0.708870
vt 0.282822 0.988446
vt 0.305249 0.709255
vt 0.298111 0.988804
vt 0.321744 0.709712
vt 0.313398 0.989227
vt 0.338238 0.710240
vt 0.328684 0.989717
vt 0.354729 0.710840
vt 0.343967 0.990272
vt 0.371218 0.711510
vt 0.359247 0.990894
vt 0.387703 0.712253
vt 0.374525 0.991582
vt 0.041278 0.711647
vt 0.053479 0.991020
vt 0.038202 0.991720
vt 0.024793 0.712403
vt 0.057766 0.710962
vt 0.068759 0.990386
vt 0.056557 0.583203
vt 0.051899 0.592485
vt 0.049100 0.602398
vt 0.048297 0.612449
vt 0.049595 0.622426
vt 0.052856 0.631930
vt 0.058009 0.640578
vt 0.064671 0.648277
vt 0.072671 0.654469
vt 0.081707 0.658952
vt 0.091422 0.661577
vt 0.101438 0.662328
vt 0.111413 0.661045
vt 0.120931 0.657884
vt 0.129606 0.652883
vt 0.137147 0.646260
vt 0.143221 0.638270
vt 0.147601 0.629207
vt 0.150112 0.619401
vt 0.151074 0.609336
vt 0.150005 0.599357
vt 0.146971 0.589839
vt 0.142101 0.581121
vt 0.135694 0.573496
vt 0.127918 0.567307
vt 0.119060 0.562782
vt 0.109389 0.560077
vt 0.099252 0.559169
vt 0.089178 0.560317
vt 0.079550 0.563375
vt 0.070714 0.568310
vt 0.062918 0.575024
vt 0.305090 0.531919
vt 0.313903 0.536515
vt 0.321608 0.542789
vt 0.327904 0.550512
vt 0.332534 0.559374
vt 0.335279 0.568997
vt 0.335822 0.578629
vt 0.334530 0.587375
vt 0.331963 0.596632
vt 0.327616 0.605139
vt 0.322125 0.612636
vt 0.315658 0.618494
vt 0.307342 0.623364
vt 0.298170 0.626470
vt 0.288514 0.627672
vt 0.278749 0.626898
vt 0.269138 0.624409
vt 0.260265 0.620054
vt 0.252444 0.614000
vt 0.245965 0.606466
vt 0.240960 0.597952
vt 0.237779 0.588653
vt 0.236531 0.578913
vt 0.237272 0.569095
vt 0.239820 0.559616
vt 0.244222 0.550858
vt 0.250287 0.543162
vt 0.257771 0.536851
vt 0.266376 0.532097
vt 0.275769 0.529160
vt 0.285599 0.528169
vt 0.295504 0.529191
vt 0.372307 0.598213
vt 0.400752 0.712868
vt 0.387574 0.992197
vt 0.028270 0.992197
vt 0.014860 0.712879
vt 0.388560 0.699885
vt 0.401609 0.700501
vt 0.011255 0.661425
vt 0.021187 0.660948
vt 0.392425 0.608302
vt 0.384696 0.606313
vt 0.366823 0.639859
vt 0.419032 0.604362
vn 0.2457 -0.9690 0.0242
vn 0.0438 0.9990 -0.0043
vn 0.2363 -0.9690 0.0717
vn 0.0438 0.9990 0.0043
vn 0.2178 -0.9690 0.1164
vn 0.0422 0.9990 0.0128
vn 0.1909 -0.9690 0.1566
vn 0.0388 0.9990 0.0208
vn -0.0043 0.9990 0.0438
vn 0.1566 -0.9690 0.1909
vn 0.0341 0.9990 0.0279
vn -0.0128 0.9990 0.0422
vn 0.1164 -0.9690 0.2178
vn 0.0279 0.9990 0.0341
vn -0.0208 0.9990 0.0388
vn 0.0717 -0.9690 0.2363
vn 0.0208 0.9990 0.0388
vn -0.0279 0.9990 0.0341
vn 0.0242 -0.9690 0.2457
vn 0.0128 0.9990 0.0422
vn -0.0341 0.9990 0.0279
vn -0.0242 -0.9690 0.2457
vn 0.0043 0.9990 0.0438
vn -0.0388 0.9990 0.0208
vn -0.0717 -0.9690 0.2363
vn -0.9941 -0.0406 -0.1006
vn -0.1164 -0.9690 0.2178
vn -0.3810 -0.0361 -0.9239
vn -0.1566 -0.9690 0.1909
vn 0.9941 0.0406 0.1003
vn -0.1909 -0.9690 0.1566
vn -0.9498 -0.0562 -0.3077
vn -0.2178 -0.9690 0.1164
vn -0.0388 0.9990 -0.0208
vn -0.2363 -0.9690 0.0717
vn -0.0341 0.9990 -0.0279
vn -0.2457 -0.9690 0.0242
vn -0.0279 0.9990 -0.0341
vn -0.2457 -0.9690 -0.0242
vn -0.0208 0.9990 -0.0388
vn -0.2363 -0.9690 -0.0717
vn -0.0128 0.9990 -0.0422
vn -0.2178 -0.9690 -0.1164
vn 0.0242 -0.9690 -0.2457
vn -0.0043 0.9990 -0.0438
vn -0.1909 -0.9690 -0.1566
vn 0.0717 -0.9690 -0.2363
vn 0.0043 0.9990 -0.0438
vn -0.1566 -0.9690 -0.1909
vn 0.1164 -0.9690 -0.2178
vn 0.0128 0.9990 -0.0422
vn -0.1164 -0.9690 -0.2178
vn 0.1566 -0.9690 -0.1909
vn 0.0208 0.9990 -0.0388
vn -0.0717 -0.9690 -0.2363
vn 0.1909 -0.9690 -0.1566
vn 0.0279 0.9990 -0.0341
vn -0.0242 -0.9690 -0.2457
vn 0.2178 -0.9690 -0.1164
vn 0.0341 0.9990 -0.0279
vn 0.2363 -0.9690 -0.0717
vn 0.0388 0.9990 -0.0208
vn 0.2457 -0.9690 -0.0242
vn 0.0422 0.9990 -0.0128
vn -0.0980 0.0219 -0.9949
vn -0.2902 0.0219 -0.9567
vn -0.4713 0.0219 -0.8817
vn -0.6342 0.0219 -0.7728
vn -0.7728 0.0219 -0.6342
vn -0.8817 0.0219 -0.4713
vn -0.9567 0.0219 -0.2902
vn -0.9949 0.0219 -0.0980
vn -0.9949 0.0219 0.0980
vn -0.9567 0.0219 0.2902
vn -0.8817 0.0219 0.4713
vn -0.7728 0.0219 0.6342
vn -0.6342 0.0219 0.7728
vn -0.4713 0.0219 0.8817
vn -0.2902 0.0219 0.9567
vn -0.0980 0.0219 0.9949
vn 0.0980 0.0219 0.9949
vn 0.2902 0.0219 0.9567
vn 0.4713 0.0219 0.8817
vn 0.4713 0.0219 -0.8817
vn 0.2902 0.0219 -0.9567
vn 0.0980 0.0219 -0.9949
vn 0.0962 0.1930 -0.9765
vn 0.2848 0.1930 -0.9390
vn 0.4625 0.1930 -0.8653
vn 0.6225 0.1930 -0.7585
vn 0.7585 0.1930 -0.6225
vn 0.8653 0.1930 -0.4625
vn 0.9390 0.1930 -0.2848
vn 0.9765 0.1930 -0.0962
vn 0.9765 0.1930 0.0962
vn 0.9390 0.1930 0.2848
vn 0.8653 0.1930 0.4625
vn 0.7585 0.1930 0.6225
vn 0.6225 0.1930 0.7585
vn 0.4625 0.1930 0.8653
vn 0.2848 0.1930 0.9390
vn 0.0962 0.1930 0.9765
vn -0.0962 0.1930 0.9765
vn -0.2848 0.1930 0.9390
vn -0.4625 0.1930 0.8653
vn -0.6225 0.1930 0.7585
vn -0.7585 0.1930 0.6225
vn -0.8653 0.1930 0.4625
vn -0.9390 0.1930 0.2848
vn -0.9765 0.1930 0.0962
vn -0.9765 0.1930 -0.0962
vn -0.9390 0.1930 -0.2848
vn -0.8653 0.1930 -0.4625
vn -0.7585 0.1930 -0.6225
vn -0.6225 0.1930 -0.7585
vn -0.4625 0.1930 -0.8653
vn 0.0000 1.0000 0.0000
vn -0.2848 0.1930 -0.9390
vn -0.0962 0.1930 -0.9765
vn -0.0000 -1.0000 0.0000
vn -0.0976 0.0971 -0.9905
vn -0.2889 0.0971 -0.9524
vn -0.4692 0.0971 -0.8778
vn -0.6314 0.0971 -0.7694
vn -0.7694 0.0971 -0.6314
vn -0.8778 0.0971 -0.4692
vn -0.9524 0.0971 -0.2889
vn -0.9905 0.0971 -0.0976
vn -0.9905 0.0971 0.0976
vn -0.9524 0.0971 0.2889
vn -0.8778 0.0971 0.4692
vn -0.7694 0.0971 0.6314
vn -0.6314 0.0971 0.7694
vn -0.4692 0.0971 0.8778
vn -0.2889 0.0971 0.9524
vn -0.0976 0.0971 0.9905
vn 0.0976 0.0971 0.9905
vn 0.2889 0.0971 0.9524
vn 0.4692 0.0971 0.8778
vn 0.6314 0.0971 0.7694
vn 0.7694 0.0971 0.6314
vn 0.8778 0.0971 0.4692
vn 0.9524 0.0971 0.2889
vn 0.9905 0.0971 0.0976
vn 0.9905 0.0971 -0.0976
vn 0.9524 0.0971 -0.2889
vn 0.8778 0.0971 -0.4692
vn 0.7694 0.0971 -0.6314
vn 0.6314 0.0971 -0.7694
vn 0.4692 0.0971 -0.8778
vn 0.2889 0.0971 -0.9524
vn 0.0976 0.0971 -0.9905
vn 0.8740 0.0018 -0.4860
vn 0.8740 0.0018 0.4860
vn 0.8740 0.0000 -0.4859
vn 0.8740 0.0000 0.4859
vn -0.1900 0.8462 -0.4979
vn -0.0555 0.9915 -0.1180
vn -0.0555 0.9915 0.1180
vn -0.1900 0.8462 0.4979
vn 0.9941 0.0406 -0.1003
vn -0.3810 -0.0361 0.9239
vn -0.9941 -0.0406 0.1006
vn 0.9504 0.0563 -0.3057
vn 0.9504 0.0563 0.3057
vn -0.9498 -0.0562 0.3077
usemtl None
s off
f 42/1/1 41/2/1 169/3/1 170/4/1
f 24/5/2 25/6/2 139/7/2 136/8/2
f 43/9/3 42/1/3 170/4/3 171/10/3
f 25/6/4 26/11/4 142/12/4 139/7/4
f 44/13/5 43/9/5 171/10/5 172/14/5
f 26/11/6 27/15/6 145/16/6 142/12/6
f 45/17/7 44/13/7 172/14/7 173/18/7
f 27/15/8 28/19/8 148/20/8 145/16/8
f 1/21/9 2/22/9 70/23/9 161/24/9
f 46/25/10 45/17/10 173/18/10 174/26/10
f 28/19/11 29/27/11 151/28/11 148/20/11
f 2/22/12 3/29/12 73/30/12 70/23/12
f 47/31/13 46/25/13 174/26/13 175/32/13
f 29/27/14 30/33/14 154/34/14 151/28/14
f 3/29/15 4/35/15 76/36/15 73/30/15
f 48/37/16 47/31/16 175/32/16 176/38/16
f 30/33/17 31/39/17 157/40/17 154/34/17
f 4/35/18 5/41/18 79/42/18 76/36/18
f 49/43/19 48/37/19 176/38/19 177/44/19
f 31/39/20 32/45/20 160/46/20 157/40/20
f 5/41/21 6/47/21 82/48/21 79/42/21
f 50/49/22 49/43/22 177/44/22 178/50/22
f 32/45/23 1/21/23 161/24/23 160/46/23
f 6/47/24 7/51/24 85/52/24 82/48/24
f 51/53/25 50/49/25 178/50/25 179/54/25
f 9/55/26 10/56/26 208/57/26 206/58/26
f 52/59/27 51/53/27 179/54/27 180/60/27
f 85/52/28 7/51/28 202/61/28 201/62/28
f 53/63/29 52/59/29 180/60/29 181/64/29
f 94/65/30 91/66/30 205/67/30 207/68/30
f 54/69/31 53/63/31 181/64/31 182/70/31
f 10/56/32 11/71/32 210/72/32 208/57/32
f 55/73/33 54/69/33 182/70/33 183/74/33
f 11/71/34 12/75/34 100/76/34 97/77/34
f 56/78/35 55/73/35 183/74/35 184/79/35
f 12/75/36 13/80/36 103/81/36 100/76/36
f 57/82/37 56/78/37 184/79/37 185/83/37
f 13/80/38 14/84/38 106/85/38 103/81/38
f 58/86/39 57/82/39 185/83/39 186/87/39
f 14/84/40 15/88/40 109/89/40 106/85/40
f 59/90/41 58/86/41 186/87/41 187/91/41
f 15/88/42 16/92/42 112/93/42 109/89/42
f 60/94/43 59/90/43 187/91/43 188/95/43
f 34/96/44 33/97/44 69/98/44 162/99/44
f 16/92/45 17/100/45 115/101/45 112/93/45
f 61/102/46 60/94/46 188/95/46 189/103/46
f 35/104/47 34/96/47 162/99/47 163/105/47
f 17/100/48 18/106/48 118/107/48 115/101/48
f 62/108/49 61/102/49 189/103/49 190/109/49
f 36/110/50 35/104/50 163/105/50 164/111/50
f 18/106/51 19/112/51 121/113/51 118/107/51
f 63/114/52 62/108/52 190/109/52 191/115/52
f 37/116/53 36/110/53 164/111/53 165/117/53
f 19/112/54 20/118/54 124/119/54 121/113/54
f 64/120/55 63/114/55 191/115/55 192/121/55
f 38/122/56 37/116/56 165/117/56 166/123/56
f 20/118/57 21/124/57 127/125/57 124/119/57
f 33/97/58 64/120/58 192/121/58 69/98/58
f 39/126/59 38/122/59 166/123/59 167/127/59
f 21/124/60 22/128/60 130/129/60 127/125/60
f 40/130/61 39/126/61 167/127/61 168/131/61
f 22/128/62 23/132/62 133/133/62 130/129/62
f 41/2/63 40/130/63 168/131/63 169/3/63
f 23/132/64 24/5/64 136/8/64 133/133/64
f 32/134/65 64/135/65 33/136/65 1/137/65
f 31/138/66 63/139/66 64/135/66 32/134/66
f 30/140/67 62/141/67 63/139/67 31/138/67
f 29/142/68 61/143/68 62/141/68 30/140/68
f 28/144/69 60/145/69 61/143/69 29/142/69
f 27/146/70 59/147/70 60/145/70 28/144/70
f 26/148/71 58/149/71 59/147/71 27/146/71
f 25/150/72 57/151/72 58/149/72 26/148/72
f 24/152/73 56/153/73 57/151/73 25/150/73
f 23/154/74 55/155/74 56/153/74 24/152/74
f 22/156/75 54/157/75 55/155/75 23/154/75
f 21/158/76 53/159/76 54/157/76 22/156/76
f 20/160/77 52/161/77 53/159/77 21/158/77
f 19/162/78 51/163/78 52/161/78 20/160/78
f 18/164/79 50/165/79 51/163/79 19/162/79
f 17/166/80 49/167/80 50/165/80 18/164/80
f 16/168/81 48/169/81 49/167/81 17/166/81
f 15/170/82 47/171/82 48/169/82 16/168/82
f 14/172/83 46/173/83 47/171/83 15/170/83
f 3/174/84 35/175/84 36/176/84 4/177/84
f 2/178/85 34/179/85 35/175/85 3/174/85
f 1/137/86 33/136/86 34/179/86 2/178/86
f 69/98/87 68/180/87 67/181/87 162/99/87
f 162/99/88 67/181/88 72/182/88 163/105/88
f 163/105/89 72/182/89 75/183/89 164/111/89
f 164/111/90 75/183/90 78/184/90 165/117/90
f 165/117/91 78/184/91 81/185/91 166/123/91
f 166/123/92 81/185/92 84/186/92 167/127/92
f 167/127/93 84/186/93 87/187/93 168/131/93
f 168/131/94 87/187/94 90/188/94 169/3/94
f 169/3/95 90/188/95 93/189/95 170/4/95
f 170/4/96 93/189/96 96/190/96 171/10/96
f 171/10/97 96/190/97 99/191/97 172/14/97
f 172/14/98 99/191/98 102/192/98 173/18/98
f 173/18/99 102/192/99 105/193/99 174/26/99
f 174/26/100 105/193/100 108/194/100 175/32/100
f 175/32/101 108/194/101 111/195/101 176/38/101
f 176/38/102 111/195/102 114/196/102 177/44/102
f 177/44/103 114/196/103 117/197/103 178/50/103
f 178/50/104 117/197/104 120/198/104 179/54/104
f 179/54/105 120/198/105 123/199/105 180/60/105
f 180/60/106 123/199/106 126/200/106 181/64/106
f 181/64/107 126/200/107 129/201/107 182/70/107
f 182/70/108 129/201/108 132/202/108 183/74/108
f 183/74/109 132/202/109 135/203/109 184/79/109
f 184/79/110 135/203/110 138/204/110 185/83/110
f 185/83/111 138/204/111 141/205/111 186/87/111
f 186/87/112 141/205/112 144/206/112 187/91/112
f 187/91/113 144/206/113 147/207/113 188/95/113
f 188/95/114 147/207/114 150/208/114 189/103/114
f 189/103/115 150/208/115 153/209/115 190/109/115
f 190/109/116 153/209/116 156/210/116 191/115/116
f 67/181/117 68/180/117 159/211/117 156/210/117 153/209/117 150/208/117 147/207/117 144/206/117 141/205/117 138/204/117 135/203/117 132/202/117 129/201/117 126/200/117 123/199/117 120/198/117 117/197/117 114/196/117 111/195/117 108/194/117 105/193/117 102/192/117 99/191/117 96/190/117 93/189/117 90/188/117 87/187/117 84/186/117 81/185/117 78/184/117 75/183/117 72/182/117
f 191/115/118 156/210/118 159/211/118 192/121/118
f 192/121/119 159/211/119 68/180/119 69/98/119
f 65/212/120 66/213/120 71/214/120 74/215/120 77/216/120 80/217/120 83/218/120 86/219/120 89/220/120 92/221/120 95/222/120 98/223/120 101/224/120 104/225/120 107/226/120 110/227/120 113/228/120 116/229/120 119/230/120 122/231/120 125/232/120 128/233/120 131/234/120 134/235/120 137/236/120 140/237/120 143/238/120 146/239/120 149/240/120 152/241/120 155/242/120 158/243/120
f 158/243/121 160/46/121 161/24/121 65/212/121
f 155/242/122 157/40/122 160/46/122 158/243/122
f 152/241/123 154/34/123 157/40/123 155/242/123
f 149/240/124 151/28/124 154/34/124 152/241/124
f 146/239/125 148/20/125 151/28/125 149/240/125
f 143/238/126 145/16/126 148/20/126 146/239/126
f 140/237/127 142/12/127 145/16/127 143/238/127
f 137/236/128 139/7/128 142/12/128 140/237/128
f 134/235/129 136/8/129 139/7/129 137/236/129
f 131/234/130 133/133/130 136/8/130 134/235/130
f 128/233/131 130/129/131 133/133/131 131/234/131
f 125/232/132 127/125/132 130/129/132 128/233/132
f 122/231/133 124/119/133 127/125/133 125/232/133
f 119/230/134 121/113/134 124/119/134 122/231/134
f 116/229/135 118/107/135 121/113/135 119/230/135
f 113/228/136 115/101/136 118/107/136 116/229/136
f 110/227/137 112/93/137 115/101/137 113/228/137
f 107/226/138 109/89/138 112/93/138 110/227/138
f 104/225/139 106/85/139 109/89/139 107/226/139
f 101/224/140 103/81/140 106/85/140 104/225/140
f 98/223/141 100/76/141 103/81/141 101/224/141
f 95/222/142 97/77/142 100/76/142 98/223/142
f 92/221/143 94/65/143 97/77/143 95/222/143
f 89/220/144 91/66/144 94/65/144 92/221/144
f 86/219/145 88/244/145 91/66/145 89/220/145
f 83/218/146 85/52/146 88/244/146 86/219/146
f 80/217/147 82/48/147 85/52/147 83/218/147
f 77/216/148 79/42/148 82/48/148 80/217/148
f 74/215/149 76/36/149 79/42/149 77/216/149
f 71/214/150 73/30/150 76/36/150 74/215/150
f 66/213/151 70/23/151 73/30/151 71/214/151
f 65/212/152 161/24/152 70/23/152 66/213/152
f 46/173/153 14/172/153 193/245/153 194/246/153
f 4/177/154 36/176/154 196/247/154 195/248/154
f 193/245/155 14/172/155 197/249/155 198/250/155
f 4/177/156 195/248/156 200/251/156 199/252/156
f 202/61/157 204/253/157 203/254/157 201/62/157
f 204/253/158 206/58/158 205/67/158 203/254/158
f 206/58/159 208/57/159 207/68/159 205/67/159
f 208/57/160 210/72/160 209/255/160 207/68/160
f 91/66/161 88/244/161 203/254/161 205/67/161
f 11/71/162 97/77/162 209/255/162 210/72/162
f 8/256/163 9/55/163 206/58/163 204/253/163
f 88/244/164 85/52/164 201/62/164 203/254/164
f 97/77/165 94/65/165 207/68/165 209/255/165
f 7/51/166 8/256/166 204/253/166 202/61/166
