# Blender v2.80 (sub 75) OBJ File: 'ld45.blend'
# www.blender.org
mtllib decor1.mtl
o Cube.005
v -2.092942 -0.051614 7.898913
v -2.092942 1.069993 7.898913
v -2.092942 -0.051614 5.778019
v -2.092942 1.069993 5.778019
v -1.348149 -0.051614 7.898913
v -1.348149 0.741911 7.898913
v -1.348149 -0.051614 5.778019
v -1.348149 0.741911 5.778019
v -1.813661 -0.051614 5.778019
v -1.813661 1.069993 5.778019
v -1.813661 -0.051614 7.898913
v -1.813661 1.069993 7.898913
v -2.092942 3.736343 7.898913
v -2.092942 3.736343 5.778019
v -1.813661 3.736343 7.898913
v -1.813661 3.736343 5.778019
vt 0.957152 0.011233
vt 0.957152 0.106258
vt 0.904296 0.078462
vt 0.904296 0.011233
vt 0.724610 0.078462
vt 0.724610 0.011233
vt 0.671754 0.011233
vt 0.671754 0.106258
vt 0.640043 0.106258
vt 0.640043 0.011233
vt 0.904296 0.138181
vt 0.724610 0.138181
vt 0.988863 0.011233
vt 0.988863 0.106258
vt 0.936006 0.138181
vt 0.936007 0.364078
vt 0.904296 0.364078
vt 0.692900 0.138181
vt 0.724610 0.364078
vt 0.692900 0.364078
vn 0.0000 0.0000 -1.0000
vn 1.0000 0.0000 0.0000
vn 0.0000 0.0000 1.0000
vn 0.5761 0.8174 0.0000
usemtl None
s off
f 9/1/1 10/2/1 8/3/1 7/4/1
f 7/4/2 8/3/2 6/5/2 5/6/2
f 11/7/3 12/8/3 2/9/3 1/10/3
f 8/3/4 10/11/4 12/12/4 6/5/4
f 5/6/3 6/5/3 12/8/3 11/7/3
f 3/13/1 4/14/1 10/2/1 9/1/1
f 10/11/1 4/15/1 14/16/1 16/17/1
f 2/18/3 12/12/3 15/19/3 13/20/3
f 12/12/2 10/11/2 16/17/2 15/19/2
