# Blender v2.80 (sub 75) OBJ File: 'ld45.blend'
# www.blender.org
mtllib doortop.mtl
o Cylinder.001_Cylinder.016
v -0.094538 3.072783 0.129956
v -0.094538 3.072783 -0.059394
v 0.175675 3.046170 0.129956
v 0.175675 3.046169 -0.059394
v 0.435504 2.967351 0.129956
v 0.435504 2.967352 -0.059394
v 0.674963 2.839357 0.129956
v 0.674963 2.839357 -0.059394
v 0.884851 2.667107 0.129956
v 0.884851 2.667107 -0.059394
v 1.057102 2.457219 0.129956
v 1.057102 2.457219 -0.059394
v 1.185096 2.217759 0.129956
v 1.185096 2.217760 -0.059394
v 1.263914 1.957930 0.129956
v 1.263914 1.957931 -0.059394
v 1.290527 1.687717 0.129956
v 1.290527 1.687718 -0.059394
v -1.452990 1.417506 0.129956
v -1.452990 1.417506 -0.059394
v -1.479603 1.687719 0.129956
v -1.479603 1.687719 -0.059394
v -1.452989 1.957932 0.129956
v -1.452989 1.957932 -0.059394
v -1.374171 2.217761 0.129956
v -1.374171 2.217761 -0.059394
v -1.246177 2.457220 0.129956
v -1.246177 2.457221 -0.059394
v -1.073926 2.667108 0.129956
v -1.073926 2.667108 -0.059394
v -0.864038 2.839359 0.129956
v -0.864038 2.839359 -0.059394
v -0.624578 2.967352 0.129956
v -0.624578 2.967352 -0.059394
v -0.364749 3.046170 0.129956
v -0.364749 3.046170 -0.059394
v -0.094539 1.687719 -0.059394
v -0.094539 1.412620 -0.059394
v -0.619921 1.414510 -0.059394
v -0.620739 1.687719 -0.059394
v -0.624580 1.687718 0.129956
v -0.624580 1.417506 0.129956
v -0.096480 1.687718 0.129956
v -0.097066 1.417506 0.129956
vt 1.000000 0.500000
vt 0.968750 0.500000
vt 0.968750 1.000000
vt 1.000000 1.000000
vt 0.937500 0.500000
vt 0.937500 1.000000
vt 0.906250 0.500000
vt 0.906250 1.000000
vt 0.875000 0.500000
vt 0.875000 1.000000
vt 0.843750 0.500000
vt 0.843750 1.000000
vt 0.812500 0.500000
vt 0.812500 1.000000
vt 0.781250 0.500000
vt 0.781250 1.000000
vt 0.750000 0.500000
vt 0.750000 1.000000
vt 0.281250 0.500000
vt 0.250000 0.500000
vt 0.250000 1.000000
vt 0.281250 1.000000
vt 0.218750 0.500000
vt 0.218750 1.000000
vt 0.187500 0.500000
vt 0.187500 1.000000
vt 0.156250 0.500000
vt 0.156250 1.000000
vt 0.125000 0.500000
vt 0.125000 1.000000
vt 0.093750 0.500000
vt 0.093750 1.000000
vt 0.062500 0.500000
vt 0.062500 1.000000
vt 0.296822 0.485389
vt 0.341844 0.471731
vt 0.383337 0.449553
vt 0.419706 0.419706
vt 0.449553 0.383337
vt 0.471731 0.341844
vt 0.485388 0.296822
vt 0.490000 0.250000
vt 0.250000 0.250000
vt 0.250000 0.490000
vt 0.031250 0.500000
vt 0.031250 1.000000
vt 0.000000 0.500000
vt 0.000000 1.000000
vt 0.750000 0.490000
vt 0.703179 0.485389
vt 0.658156 0.471731
vt 0.658156 0.250000
vt 0.749663 0.250000
vt 0.510000 0.250000
vt 0.514611 0.203179
vt 0.658156 0.203179
vt 0.158821 0.250000
vt 0.158156 0.471731
vt 0.203179 0.485389
vt 0.014611 0.203179
vt 0.010000 0.250000
vt 0.158963 0.202659
vt 0.250000 0.202332
vt 0.014612 0.296822
vt 0.028269 0.341844
vt 0.050447 0.383337
vt 0.080295 0.419706
vt 0.116663 0.449553
vt 0.616663 0.449553
vt 0.580295 0.419706
vt 0.550447 0.383337
vt 0.528269 0.341844
vt 0.514612 0.296822
vt 0.990000 0.250000
vt 0.985388 0.296822
vt 0.971731 0.341844
vt 0.949553 0.383337
vt 0.919706 0.419706
vt 0.883337 0.449553
vt 0.841844 0.471731
vt 0.796822 0.485389
vt 0.749562 0.203179
vt 0.749562 0.203179
vt 0.250000 0.202332
vt 0.250000 0.250000
vt 0.749663 0.250000
vt 0.490000 0.250000
vt 0.990000 0.250000
vt 0.749663 0.250000
vt 0.250000 0.250000
vt 0.514611 0.203179
vt 0.014611 0.203179
vt 0.158963 0.202659
vt 0.658156 0.203179
vt 0.658156 0.203179
vt 0.158963 0.202659
vt 0.250000 0.202332
vt 0.749562 0.203179
vn 0.0980 0.9952 -0.0000
vn 0.2903 0.9569 0.0000
vn 0.4714 0.8819 0.0000
vn 0.6344 0.7730 0.0000
vn 0.7730 0.6344 0.0000
vn 0.8819 0.4714 0.0000
vn 0.9569 0.2903 0.0000
vn 0.9952 0.0980 0.0000
vn -0.9952 -0.0980 -0.0000
vn -0.9952 0.0980 0.0000
vn -0.9569 0.2903 0.0000
vn -0.8819 0.4714 0.0000
vn -0.7730 0.6344 0.0000
vn -0.6344 0.7730 0.0000
vn -0.4714 0.8819 0.0000
vn 0.0000 0.0000 -1.0000
vn -0.2903 0.9569 0.0000
vn -0.0980 0.9952 0.0000
vn 0.0000 -0.0000 1.0000
vn 0.9999 -0.0011 0.0118
vn -0.0000 -1.0000 -0.0000
vn -0.0018 -1.0000 0.0079
vn -0.0018 -0.9998 0.0208
usemtl None
s off
f 1/1/1 3/2/1 4/3/1 2/4/1
f 3/2/2 5/5/2 6/6/2 4/3/2
f 5/5/3 7/7/3 8/8/3 6/6/3
f 7/7/4 9/9/4 10/10/4 8/8/4
f 9/9/5 11/11/5 12/12/5 10/10/5
f 11/11/6 13/13/6 14/14/6 12/12/6
f 13/13/7 15/15/7 16/16/7 14/14/7
f 15/15/8 17/17/8 18/18/8 16/16/8
f 19/19/9 21/20/9 22/21/9 20/22/9
f 21/20/10 23/23/10 24/24/10 22/21/10
f 23/23/11 25/25/11 26/26/11 24/24/11
f 25/25/12 27/27/12 28/28/12 26/26/12
f 27/27/13 29/29/13 30/30/13 28/28/13
f 29/29/14 31/31/14 32/32/14 30/30/14
f 31/31/15 33/33/15 34/34/15 32/32/15
f 4/35/16 6/36/16 8/37/16 10/38/16 12/39/16 14/40/16 16/41/16 18/42/16 37/43/16 2/44/16
f 33/33/17 35/45/17 36/46/17 34/34/17
f 35/45/18 1/47/18 2/48/18 36/46/18
f 1/49/19 35/50/19 33/51/19 41/52/19 43/53/19
f 21/54/19 19/55/19 42/56/19 41/52/19
f 37/43/16 40/57/16 34/58/16 36/59/16 2/44/16
f 20/60/16 22/61/16 40/57/16 39/62/16
f 40/57/16 37/43/16 38/63/16 39/62/16
f 40/57/16 22/61/16 24/64/16 26/65/16 28/66/16 30/67/16 32/68/16 34/58/16
f 33/51/19 31/69/19 29/70/19 27/71/19 25/72/19 23/73/19 21/54/19 41/52/19
f 43/53/19 17/74/19 15/75/19 13/76/19 11/77/19 9/78/19 7/79/19 5/80/19 3/81/19 1/49/19
f 43/53/19 41/52/19 42/56/19 44/82/19
f 38/83/20 37/84/20 43/85/20 44/86/20
f 17/87/21 43/88/21 37/89/21 18/90/21
f 20/91/22 39/92/22 42/93/22 19/94/22
f 39/95/23 38/96/23 44/97/23 42/98/23
