# Blender v2.80 (sub 75) OBJ File: 'ld45.blend'
# www.blender.org
mtllib doorframe.mtl
o Cylinder_Cylinder.015
v -0.095700 3.374359 -0.149050
v -0.095700 3.374359 0.229976
v 0.235362 3.341752 -0.149050
v 0.235362 3.341752 0.229976
v 0.553701 3.245185 -0.149050
v 0.553701 3.245185 0.229976
v 0.847083 3.088369 -0.149050
v 0.847083 3.088369 0.229976
v 1.104235 2.877330 -0.149050
v 1.104235 2.877330 0.229976
v 1.315275 2.620177 -0.149050
v 1.315275 2.620177 0.229976
v 1.472091 2.326795 -0.149050
v 1.472091 2.326795 0.229976
v 1.568658 2.008456 -0.149050
v 1.568658 2.008456 0.229976
v 1.601265 1.677395 -0.149050
v 1.601265 1.677395 0.229976
v 1.568658 1.346333 -0.149050
v 1.568658 1.346333 0.229976
v 1.472091 1.027994 -0.149050
v 1.472091 1.027994 0.229976
v 1.315275 0.734611 -0.149050
v 1.315275 0.734611 0.229976
v 1.104235 0.477459 -0.149050
v 1.104235 0.477459 0.229976
v 0.847083 0.266420 -0.149050
v 0.847083 0.266420 0.229976
v 0.553700 0.109603 -0.149050
v 0.553700 0.109603 0.229976
v 0.235361 0.013036 -0.149050
v 0.235361 0.013036 0.229976
v -0.095700 -0.019570 -0.149050
v -0.095700 -0.019570 0.229976
v -0.426762 0.013037 -0.149050
v -0.426762 0.013037 0.229976
v -0.745101 0.109604 -0.149050
v -0.745101 0.109604 0.229976
v -1.038484 0.266420 -0.149050
v -1.038484 0.266420 0.229976
v -1.295636 0.477460 -0.149050
v -1.295636 0.477460 0.229976
v -1.506675 0.734612 -0.149050
v -1.506675 0.734612 0.229976
v -1.663491 1.027995 -0.149050
v -1.663491 1.027995 0.229976
v -1.760058 1.346334 -0.149050
v -1.760058 1.346334 0.229976
v -1.792664 1.677396 -0.149050
v -1.792664 1.677396 0.229976
v -1.760057 2.008457 -0.149050
v -1.760057 2.008457 0.229976
v -1.663490 2.326797 -0.149050
v -1.663490 2.326797 0.229976
v -1.506673 2.620179 -0.149050
v -1.506673 2.620179 0.229976
v -1.295633 2.877331 -0.149050
v -1.295633 2.877331 0.229976
v -1.038481 3.088370 -0.149050
v -1.038481 3.088370 0.229976
v -0.745098 3.245186 -0.149050
v -0.745098 3.245186 0.229976
v -0.426759 3.341753 -0.149050
v -0.426759 3.341753 0.229976
v -0.095700 3.063661 -0.149050
v 0.174747 3.037024 -0.149050
v 0.174747 3.037024 0.229976
v -0.095700 3.063661 0.229976
v 0.434801 2.958138 -0.149050
v 0.434801 2.958138 0.229976
v 0.674469 2.830033 -0.149050
v 0.674469 2.830033 0.229976
v 0.884539 2.657633 -0.149050
v 0.884539 2.657633 0.229976
v 1.056939 2.447563 -0.149050
v 1.056939 2.447563 0.229976
v 1.185043 2.207896 -0.149050
v 1.185043 2.207896 0.229976
v 1.263930 1.947842 -0.149050
v 1.263930 1.947842 0.229976
v 1.290567 1.677394 -0.149050
v 1.290567 1.677395 0.229976
v 1.263930 1.406947 -0.149050
v 1.263930 1.406947 0.229976
v 1.185043 1.146894 -0.149050
v 1.185043 1.146894 0.229976
v 1.056939 0.907226 -0.149050
v 1.056939 0.907226 0.229976
v 0.884539 0.697156 -0.149050
v 0.884539 0.697156 0.229976
v 0.674468 0.524756 -0.149050
v 0.674468 0.524756 0.229976
v 0.434801 0.396651 -0.149050
v 0.434801 0.396651 0.229976
v 0.174747 0.317765 -0.149050
v 0.174747 0.317765 0.229976
v -0.095700 0.291128 -0.149050
v -0.095700 0.291128 0.229976
v -0.366147 0.317765 -0.149050
v -0.366147 0.317765 0.229976
v -0.626202 0.396652 -0.149050
v -0.626202 0.396652 0.229976
v -0.865869 0.524756 -0.149050
v -0.865869 0.524756 0.229976
v -1.075939 0.697157 -0.149050
v -1.075939 0.697157 0.229976
v -1.248339 0.907227 -0.149050
v -1.248339 0.907227 0.229976
v -1.376444 1.146894 -0.149050
v -1.376444 1.146894 0.229976
v -1.455330 1.406948 -0.149050
v -1.455330 1.406948 0.229976
v -1.481966 1.677396 -0.149050
v -1.481966 1.677396 0.229976
v -1.455329 1.947843 -0.149050
v -1.455329 1.947843 0.229976
v -1.376442 2.207897 -0.149050
v -1.376442 2.207897 0.229976
v -1.248337 2.447564 -0.149050
v -1.248337 2.447564 0.229976
v -1.075937 2.657634 -0.149050
v -1.075937 2.657634 0.229976
v -0.865867 2.830034 -0.149050
v -0.865867 2.830034 0.229976
v -0.626199 2.958138 -0.149050
v -0.626199 2.958138 0.229976
v -0.366145 3.037024 -0.149050
v -0.366145 3.037024 0.229976
v 0.434801 0.396651 -0.028008
v 0.674468 0.524756 -0.028008
v 0.884539 0.697156 -0.028008
v 1.185043 1.146894 -0.028008
v 1.056939 0.907226 -0.028008
v 0.174747 0.317765 -0.028008
v -0.095700 0.291128 -0.028008
v -0.366147 0.317765 -0.028008
v -0.626202 0.396652 -0.028008
v -0.865869 0.524756 -0.028008
v -1.075939 0.697157 -0.028008
v -1.248339 0.907227 -0.028008
v -1.376444 1.146894 -0.028008
v -1.481966 1.677396 -0.028008
v -1.455330 1.406948 -0.028008
v -1.248337 2.447564 -0.028008
v -1.376442 2.207897 -0.028008
v -1.455329 1.947843 -0.028008
v 0.434801 2.958138 -0.028009
v 0.174747 3.037024 -0.028009
v -0.095700 3.063661 -0.028009
v -0.366145 3.037024 -0.028009
v -0.626199 2.958138 -0.028009
v -0.865867 2.830034 -0.028009
v -1.075937 2.657634 -0.028009
v 1.263930 1.406947 -0.028008
v 1.290567 1.677394 -0.028008
v 1.263930 1.947842 -0.028008
v 1.185043 2.207896 -0.028008
v 1.056939 2.447563 -0.028008
v 0.884539 2.657633 -0.028009
v 0.674469 2.830033 -0.028009
v 0.434801 0.396651 0.100984
v 0.674468 0.524756 0.100984
v 0.884539 0.697156 0.100984
v 1.056939 0.907226 0.100984
v 0.174747 0.317765 0.100984
v -0.095700 0.291128 0.100984
v -0.366147 0.317765 0.100984
v -0.626202 0.396652 0.100984
v -0.865869 0.524756 0.100984
v -1.075939 0.697157 0.100984
v -1.248339 0.907227 0.100984
v -1.376444 1.146894 0.100984
v -1.481966 1.677396 0.100984
v -1.248337 2.447564 0.100984
v 0.434801 2.958138 0.100984
v 1.185043 1.146894 0.100984
v -1.455330 1.406948 0.100984
v -1.376442 2.207897 0.100984
v -1.455329 1.947843 0.100984
v 0.174747 3.037024 0.100984
v -0.095700 3.063661 0.100984
v -0.366145 3.037024 0.100984
v -0.626199 2.958138 0.100984
v -0.865867 2.830034 0.100984
v -1.075937 2.657634 0.100984
v 1.263930 1.406947 0.100984
v 1.290567 1.677394 0.100984
v 1.263930 1.947842 0.100984
v 1.185043 2.207896 0.100984
v 1.056939 2.447563 0.100984
v 0.884539 2.657633 0.100984
v 0.674469 2.830033 0.100984
vt 0.347389 0.080818
vt 0.358924 0.086984
vt 0.858924 0.086984
vt 0.847389 0.080818
vt 0.378523 0.103068
vt 0.388634 0.111366
vt 0.888634 0.111366
vt 0.878523 0.103068
vt 0.404719 0.130965
vt 0.413016 0.141076
vt 0.913016 0.141076
vt 0.904719 0.130965
vt 0.424968 0.163436
vt 0.431134 0.174972
vt 0.931134 0.174972
vt 0.924968 0.163436
vt 0.788249 0.442291
vt 0.750000 0.446058
vt 0.750000 0.490000
vt 0.796822 0.485388
vt 0.250000 0.446058
vt 0.288249 0.442291
vt 0.296822 0.485388
vt 0.250000 0.490000
vt 0.825028 0.431134
vt 0.841844 0.471731
vt 0.325028 0.431134
vt 0.341844 0.471731
vt 0.858924 0.413016
vt 0.883337 0.449553
vt 0.358924 0.413016
vt 0.383337 0.449553
vt 0.888634 0.388634
vt 0.919706 0.419706
vt 0.388634 0.388634
vt 0.419706 0.419706
vt 0.913016 0.358924
vt 0.949553 0.383337
vt 0.413016 0.358924
vt 0.449553 0.383337
vt 0.931134 0.325028
vt 0.971731 0.341844
vt 0.431134 0.325028
vt 0.471731 0.341844
vt 0.942291 0.288249
vt 0.985388 0.296822
vt 0.442291 0.288249
vt 0.485388 0.296822
vt 0.946058 0.250000
vt 0.990000 0.250000
vt 0.446058 0.250000
vt 0.490000 0.250000
vt 0.942291 0.211751
vt 0.985388 0.203178
vt 0.442291 0.211751
vt 0.485388 0.203178
vt 0.931134 0.174972
vt 0.971731 0.158156
vt 0.431134 0.174972
vt 0.471731 0.158156
vt 0.913016 0.141076
vt 0.949553 0.116663
vt 0.413016 0.141076
vt 0.449553 0.116663
vt 0.888634 0.111366
vt 0.919706 0.080294
vt 0.388634 0.111366
vt 0.419706 0.080294
vt 0.858924 0.086984
vt 0.883337 0.050447
vt 0.358924 0.086984
vt 0.383337 0.050447
vt 0.825028 0.068866
vt 0.841844 0.028269
vt 0.325028 0.068866
vt 0.341844 0.028269
vt 0.788249 0.057709
vt 0.796822 0.014612
vt 0.288249 0.057709
vt 0.296822 0.014612
vt 0.750000 0.053942
vt 0.750000 0.010000
vt 0.250000 0.053942
vt 0.250000 0.010000
vt 0.711751 0.057709
vt 0.703178 0.014612
vt 0.211751 0.057709
vt 0.203178 0.014612
vt 0.674972 0.068866
vt 0.658156 0.028269
vt 0.174972 0.068866
vt 0.158156 0.028269
vt 0.641076 0.086984
vt 0.616663 0.050447
vt 0.141076 0.086984
vt 0.116663 0.050447
vt 0.611366 0.111366
vt 0.580294 0.080294
vt 0.111366 0.111366
vt 0.080294 0.080294
vt 0.586983 0.141076
vt 0.550447 0.116663
vt 0.086983 0.141076
vt 0.050447 0.116663
vt 0.568866 0.174972
vt 0.528269 0.158156
vt 0.068866 0.174972
vt 0.028269 0.158156
vt 0.557709 0.211751
vt 0.514611 0.203179
vt 0.057709 0.211751
vt 0.014611 0.203179
vt 0.553942 0.250000
vt 0.510000 0.250000
vt 0.053942 0.250000
vt 0.010000 0.250000
vt 0.557709 0.288249
vt 0.514612 0.296822
vt 0.057709 0.288249
vt 0.014612 0.296822
vt 0.568866 0.325028
vt 0.528269 0.341844
vt 0.068866 0.325028
vt 0.028269 0.341844
vt 0.586984 0.358924
vt 0.550447 0.383337
vt 0.086984 0.358924
vt 0.050447 0.383337
vt 0.611366 0.388634
vt 0.580295 0.419706
vt 0.111366 0.388634
vt 0.080295 0.419706
vt 0.641076 0.413017
vt 0.616663 0.449553
vt 0.141076 0.413017
vt 0.116663 0.449553
vt 0.674972 0.431134
vt 0.658156 0.471731
vt 0.174972 0.431134
vt 0.158156 0.471731
vt 0.711751 0.442291
vt 0.703179 0.485389
vt 0.211751 0.442291
vt 0.203179 0.485389
vt 0.312511 0.065069
vt 0.325028 0.068866
vt 0.825028 0.068866
vt 0.812511 0.065069
vt 0.275232 0.056427
vt 0.288249 0.057709
vt 0.788249 0.057709
vt 0.775232 0.056427
vt 0.236983 0.055224
vt 0.250000 0.053942
vt 0.750000 0.053942
vt 0.736983 0.055224
vt 0.199234 0.061506
vt 0.211751 0.057709
vt 0.711751 0.057709
vt 0.699234 0.061506
vt 0.163436 0.075032
vt 0.174972 0.068866
vt 0.674972 0.068866
vt 0.663436 0.075032
vt 0.130965 0.095282
vt 0.141076 0.086984
vt 0.641076 0.086984
vt 0.630965 0.095282
vt 0.103068 0.121477
vt 0.111366 0.111366
vt 0.611366 0.111366
vt 0.603068 0.121477
vt 0.080818 0.152612
vt 0.086983 0.141076
vt 0.586983 0.141076
vt 0.580818 0.152612
vt 0.056427 0.224768
vt 0.057709 0.211751
vt 0.557709 0.211751
vt 0.556427 0.224768
vt 0.065069 0.187489
vt 0.068866 0.174972
vt 0.568866 0.174972
vt 0.565069 0.187489
vt 0.075032 0.336564
vt 0.068866 0.325028
vt 0.568866 0.325028
vt 0.575032 0.336564
vt 0.061506 0.300766
vt 0.057709 0.288249
vt 0.557709 0.288249
vt 0.561506 0.300766
vt 0.055224 0.263017
vt 0.053942 0.250000
vt 0.553942 0.250000
vt 0.555224 0.263017
vt 0.300766 0.438494
vt 0.288249 0.442291
vt 0.788249 0.442291
vt 0.800766 0.438494
vt 0.263017 0.444776
vt 0.250000 0.446058
vt 0.750000 0.446058
vt 0.763017 0.444776
vt 0.224768 0.443573
vt 0.211751 0.442291
vt 0.711751 0.442291
vt 0.724768 0.443573
vt 0.187489 0.434931
vt 0.174972 0.431134
vt 0.674972 0.431134
vt 0.687489 0.434931
vt 0.152612 0.419183
vt 0.141076 0.413017
vt 0.641076 0.413017
vt 0.652612 0.419183
vt 0.121477 0.396932
vt 0.111366 0.388634
vt 0.611366 0.388634
vt 0.621477 0.396932
vt 0.095282 0.369035
vt 0.086984 0.358924
vt 0.586984 0.358924
vt 0.595282 0.369035
vt 0.438494 0.199234
vt 0.442291 0.211751
vt 0.942291 0.211751
vt 0.938494 0.199234
vt 0.444776 0.236983
vt 0.446058 0.250000
vt 0.946058 0.250000
vt 0.944776 0.236983
vt 0.443573 0.275232
vt 0.442291 0.288249
vt 0.942291 0.288249
vt 0.943573 0.275232
vt 0.434931 0.312511
vt 0.431134 0.325028
vt 0.931134 0.325028
vt 0.934931 0.312511
vt 0.419182 0.347389
vt 0.413016 0.358924
vt 0.913016 0.358924
vt 0.919182 0.347389
vt 0.396932 0.378523
vt 0.388634 0.388634
vt 0.888634 0.388634
vt 0.896932 0.378523
vt 0.369035 0.404719
vt 0.358924 0.413016
vt 0.858924 0.413016
vt 0.869035 0.404719
vt 0.336564 0.424968
vt 0.325028 0.431134
vt 0.825028 0.431134
vt 0.836564 0.424968
vt 0.358924 0.413016
vt 0.348099 0.418802
vt 0.848099 0.418802
vt 0.858924 0.413016
vt 0.388634 0.388634
vt 0.379146 0.396421
vt 0.879146 0.396421
vt 0.888634 0.388634
vt 0.413016 0.358924
vt 0.405230 0.368412
vt 0.905230 0.368412
vt 0.913016 0.358924
vt 0.431134 0.325028
vt 0.425348 0.335853
vt 0.925348 0.335853
vt 0.931134 0.325028
vt 0.442291 0.288249
vt 0.438728 0.299994
vt 0.938728 0.299994
vt 0.942291 0.288249
vt 0.446058 0.250000
vt 0.444855 0.262215
vt 0.944855 0.262215
vt 0.946058 0.250000
vt 0.442291 0.211751
vt 0.443494 0.223966
vt 0.943494 0.223966
vt 0.942291 0.211751
vt 0.431134 0.174972
vt 0.434697 0.186717
vt 0.934697 0.186717
vt 0.931134 0.174972
vt 0.111366 0.388634
vt 0.103580 0.379146
vt 0.603580 0.379146
vt 0.611366 0.388634
vt 0.141076 0.413017
vt 0.131588 0.405230
vt 0.631588 0.405230
vt 0.641076 0.413017
vt 0.174972 0.431134
vt 0.164147 0.425348
vt 0.664147 0.425348
vt 0.674972 0.431134
vt 0.211751 0.442291
vt 0.200006 0.438728
vt 0.700006 0.438728
vt 0.711751 0.442291
vt 0.250000 0.446058
vt 0.237785 0.444855
vt 0.737785 0.444855
vt 0.750000 0.446058
vt 0.288249 0.442291
vt 0.276034 0.443494
vt 0.776034 0.443494
vt 0.788249 0.442291
vt 0.325028 0.431134
vt 0.313283 0.434697
vt 0.813283 0.434697
vt 0.825028 0.431134
vt 0.057709 0.288249
vt 0.056506 0.276034
vt 0.556506 0.276034
vt 0.557709 0.288249
vt 0.068866 0.325028
vt 0.065303 0.313283
vt 0.565303 0.313283
vt 0.568866 0.325028
vt 0.086984 0.358924
vt 0.081198 0.348100
vt 0.581198 0.348100
vt 0.586984 0.358924
vt 0.057709 0.211751
vt 0.061272 0.200006
vt 0.561272 0.200006
vt 0.557709 0.211751
vt 0.053942 0.250000
vt 0.055145 0.237785
vt 0.555145 0.237785
vt 0.553942 0.250000
vt 0.068866 0.174972
vt 0.074652 0.164147
vt 0.574652 0.164147
vt 0.568866 0.174972
vt 0.086983 0.141076
vt 0.094770 0.131588
vt 0.594770 0.131588
vt 0.586983 0.141076
vt 0.111366 0.111366
vt 0.120854 0.103579
vt 0.620854 0.103579
vt 0.611366 0.111366
vt 0.141076 0.086984
vt 0.151900 0.081198
vt 0.651900 0.081198
vt 0.641076 0.086984
vt 0.174972 0.068866
vt 0.186717 0.065303
vt 0.686717 0.065303
vt 0.674972 0.068866
vt 0.211751 0.057709
vt 0.223966 0.056506
vt 0.723966 0.056506
vt 0.711751 0.057709
vt 0.250000 0.053942
vt 0.262215 0.055145
vt 0.762215 0.055145
vt 0.750000 0.053942
vt 0.288249 0.057709
vt 0.299994 0.061272
vt 0.799994 0.061272
vt 0.788249 0.057709
vt 0.413016 0.141076
vt 0.418802 0.151901
vt 0.918802 0.151901
vt 0.913016 0.141076
vt 0.388634 0.111366
vt 0.396421 0.120854
vt 0.896421 0.120854
vt 0.888634 0.111366
vt 0.358924 0.086984
vt 0.368412 0.094770
vt 0.868412 0.094770
vt 0.858924 0.086984
vt 0.325028 0.068866
vt 0.335853 0.074652
vt 0.835853 0.074652
vt 0.825028 0.068866
vn -0.4714 0.8819 0.0000
vn -0.6344 0.7730 0.0000
vn -0.7730 0.6344 0.0000
vn -0.8819 0.4714 0.0000
vn 0.0000 -0.0000 -1.0000
vn 0.0000 0.0000 1.0000
vn -0.2903 0.9569 0.0000
vn -0.0980 0.9952 0.0000
vn 0.0980 0.9952 0.0000
vn 0.2903 0.9569 0.0000
vn 0.4714 0.8819 0.0000
vn 0.6344 0.7730 0.0000
vn 0.7730 0.6344 0.0000
vn 0.8819 0.4714 0.0000
vn 0.9952 0.0980 0.0000
vn 0.9569 0.2903 0.0000
vn 0.8819 -0.4714 0.0000
vn 0.9569 -0.2903 0.0000
vn 0.9952 -0.0980 0.0000
vn -0.2903 -0.9569 0.0000
vn -0.0980 -0.9952 0.0000
vn 0.0980 -0.9952 0.0000
vn 0.2903 -0.9569 0.0000
vn 0.4714 -0.8819 0.0000
vn 0.6344 -0.7730 0.0000
vn 0.7730 -0.6344 0.0000
vn -0.9569 0.2903 0.0000
vn -0.9952 0.0980 0.0000
vn -0.9952 -0.0980 0.0000
vn -0.9569 -0.2903 0.0000
vn -0.8819 -0.4714 0.0000
vn -0.7730 -0.6344 0.0000
vn -0.6344 -0.7730 0.0000
vn -0.4714 -0.8819 0.0000
usemtl None
s off
f 161/1/1 94/2/1 92/3/1 162/4/1
f 162/5/2 92/6/2 90/7/2 163/8/2
f 163/9/3 90/10/3 88/11/3 164/12/3
f 164/13/4 88/14/4 86/15/4 176/16/4
f 66/17/5 65/18/5 1/19/5 3/20/5
f 68/21/6 67/22/6 4/23/6 2/24/6
f 69/25/5 66/17/5 3/20/5 5/26/5
f 67/22/6 70/27/6 6/28/6 4/23/6
f 71/29/5 69/25/5 5/26/5 7/30/5
f 70/27/6 72/31/6 8/32/6 6/28/6
f 73/33/5 71/29/5 7/30/5 9/34/5
f 72/31/6 74/35/6 10/36/6 8/32/6
f 75/37/5 73/33/5 9/34/5 11/38/5
f 74/35/6 76/39/6 12/40/6 10/36/6
f 77/41/5 75/37/5 11/38/5 13/42/5
f 76/39/6 78/43/6 14/44/6 12/40/6
f 79/45/5 77/41/5 13/42/5 15/46/5
f 78/43/6 80/47/6 16/48/6 14/44/6
f 81/49/5 79/45/5 15/46/5 17/50/5
f 80/47/6 82/51/6 18/52/6 16/48/6
f 83/53/5 81/49/5 17/50/5 19/54/5
f 82/51/6 84/55/6 20/56/6 18/52/6
f 85/57/5 83/53/5 19/54/5 21/58/5
f 84/55/6 86/59/6 22/60/6 20/56/6
f 87/61/5 85/57/5 21/58/5 23/62/5
f 86/59/6 88/63/6 24/64/6 22/60/6
f 89/65/5 87/61/5 23/62/5 25/66/5
f 88/63/6 90/67/6 26/68/6 24/64/6
f 91/69/5 89/65/5 25/66/5 27/70/5
f 90/67/6 92/71/6 28/72/6 26/68/6
f 93/73/5 91/69/5 27/70/5 29/74/5
f 92/71/6 94/75/6 30/76/6 28/72/6
f 95/77/5 93/73/5 29/74/5 31/78/5
f 94/75/6 96/79/6 32/80/6 30/76/6
f 97/81/5 95/77/5 31/78/5 33/82/5
f 96/79/6 98/83/6 34/84/6 32/80/6
f 99/85/5 97/81/5 33/82/5 35/86/5
f 98/83/6 100/87/6 36/88/6 34/84/6
f 101/89/5 99/85/5 35/86/5 37/90/5
f 100/87/6 102/91/6 38/92/6 36/88/6
f 103/93/5 101/89/5 37/90/5 39/94/5
f 102/91/6 104/95/6 40/96/6 38/92/6
f 105/97/5 103/93/5 39/94/5 41/98/5
f 104/95/6 106/99/6 42/100/6 40/96/6
f 107/101/5 105/97/5 41/98/5 43/102/5
f 106/99/6 108/103/6 44/104/6 42/100/6
f 109/105/5 107/101/5 43/102/5 45/106/5
f 108/103/6 110/107/6 46/108/6 44/104/6
f 111/109/5 109/105/5 45/106/5 47/110/5
f 110/107/6 112/111/6 48/112/6 46/108/6
f 113/113/5 111/109/5 47/110/5 49/114/5
f 112/111/6 114/115/6 50/116/6 48/112/6
f 115/117/5 113/113/5 49/114/5 51/118/5
f 114/115/6 116/119/6 52/120/6 50/116/6
f 117/121/5 115/117/5 51/118/5 53/122/5
f 116/119/6 118/123/6 54/124/6 52/120/6
f 119/125/5 117/121/5 53/122/5 55/126/5
f 118/123/6 120/127/6 56/128/6 54/124/6
f 121/129/5 119/125/5 55/126/5 57/130/5
f 120/127/6 122/131/6 58/132/6 56/128/6
f 123/133/5 121/129/5 57/130/5 59/134/5
f 122/131/6 124/135/6 60/136/6 58/132/6
f 125/137/5 123/133/5 59/134/5 61/138/5
f 124/135/6 126/139/6 62/140/6 60/136/6
f 127/141/5 125/137/5 61/138/5 63/142/5
f 126/139/6 128/143/6 64/144/6 62/140/6
f 65/18/5 127/141/5 63/142/5 1/19/5
f 128/143/6 68/21/6 2/24/6 64/144/6
f 165/145/7 96/146/7 94/147/7 161/148/7
f 166/149/8 98/150/8 96/151/8 165/152/8
f 167/153/9 100/154/9 98/155/9 166/156/9
f 168/157/10 102/158/10 100/159/10 167/160/10
f 169/161/11 104/162/11 102/163/11 168/164/11
f 170/165/12 106/166/12 104/167/12 169/168/12
f 171/169/13 108/170/13 106/171/13 170/172/13
f 172/173/14 110/174/14 108/175/14 171/176/14
f 173/177/15 114/178/15 112/179/15 177/180/15
f 177/181/16 112/182/16 110/183/16 172/184/16
f 174/185/17 120/186/17 118/187/17 178/188/17
f 178/189/18 118/190/18 116/191/18 179/192/18
f 179/193/19 116/194/19 114/195/19 173/196/19
f 175/197/20 70/198/20 67/199/20 180/200/20
f 180/201/21 67/202/21 68/203/21 181/204/21
f 181/205/22 68/206/22 128/207/22 182/208/22
f 182/209/23 128/210/23 126/211/23 183/212/23
f 183/213/24 126/214/24 124/215/24 184/216/24
f 184/217/25 124/218/25 122/219/25 185/220/25
f 185/221/26 122/222/26 120/223/26 174/224/26
f 176/225/27 86/226/27 84/227/27 186/228/27
f 186/229/28 84/230/28 82/231/28 187/232/28
f 187/233/29 82/234/29 80/235/29 188/236/29
f 188/237/30 80/238/30 78/239/30 189/240/30
f 189/241/31 78/242/31 76/243/31 190/244/31
f 190/245/32 76/246/32 74/247/32 191/248/32
f 191/249/33 74/250/33 72/251/33 192/252/33
f 192/253/34 72/254/34 70/255/34 175/256/34
f 71/257/34 160/258/34 147/259/34 69/260/34
f 73/261/33 159/262/33 160/263/33 71/264/33
f 75/265/32 158/266/32 159/267/32 73/268/32
f 77/269/31 157/270/31 158/271/31 75/272/31
f 79/273/30 156/274/30 157/275/30 77/276/30
f 81/277/29 155/278/29 156/279/29 79/280/29
f 83/281/28 154/282/28 155/283/28 81/284/28
f 85/285/27 132/286/27 154/287/27 83/288/27
f 121/289/26 153/290/26 144/291/26 119/292/26
f 123/293/25 152/294/25 153/295/25 121/296/25
f 125/297/24 151/298/24 152/299/24 123/300/24
f 127/301/23 150/302/23 151/303/23 125/304/23
f 65/305/22 149/306/22 150/307/22 127/308/22
f 66/309/21 148/310/21 149/311/21 65/312/21
f 69/313/20 147/314/20 148/315/20 66/316/20
f 115/317/19 146/318/19 142/319/19 113/320/19
f 117/321/18 145/322/18 146/323/18 115/324/18
f 119/325/17 144/326/17 145/327/17 117/328/17
f 111/329/16 143/330/16 141/331/16 109/332/16
f 113/333/15 142/334/15 143/335/15 111/336/15
f 109/337/14 141/338/14 140/339/14 107/340/14
f 107/341/13 140/342/13 139/343/13 105/344/13
f 105/345/12 139/346/12 138/347/12 103/348/12
f 103/349/11 138/350/11 137/351/11 101/352/11
f 101/353/10 137/354/10 136/355/10 99/356/10
f 99/357/9 136/358/9 135/359/9 97/360/9
f 97/361/8 135/362/8 134/363/8 95/364/8
f 95/365/7 134/366/7 129/367/7 93/368/7
f 87/369/4 133/370/4 132/371/4 85/372/4
f 89/373/3 131/374/3 133/375/3 87/376/3
f 91/377/2 130/378/2 131/379/2 89/380/2
f 93/381/1 129/382/1 130/383/1 91/384/1
