# Blender v2.80 (sub 75) OBJ File: 'ld45.blend'
# www.blender.org
mtllib room2doors.mtl
o Room3_Cylinder.010
v -8.833561 5.410514 -0.749557
v -8.833561 5.410515 12.285804
v -8.089503 5.337231 -0.749557
v -8.089503 5.337232 12.285804
v -7.374038 5.120197 -0.749557
v -7.374038 5.120198 12.285805
v -6.714663 4.767754 -0.749557
v -6.714663 4.767755 12.285805
v -6.136715 4.293444 -0.749557
v -6.136715 4.293445 12.285805
v -5.662405 3.715496 -0.749557
v -5.662405 3.715497 12.285805
v -5.309961 3.056120 -0.749557
v -5.309961 3.056121 12.285805
v -5.092928 2.340656 -0.749557
v -5.092928 2.340657 12.285805
v -5.043130 1.840805 -0.749557
v -5.043130 1.840806 12.285805
v -5.092927 1.454761 -0.749557
v -5.092927 1.454762 12.285805
v -5.309961 0.739297 -0.749557
v -5.309961 0.739297 12.285805
v -5.662405 0.079921 -0.749557
v -5.662405 0.079921 12.285805
v -6.943788 0.061483 -0.749557
v -6.943788 0.061483 12.285805
v -7.348776 0.061483 -0.749557
v -7.348776 0.061483 12.285805
v -7.810823 0.061483 -0.749557
v -7.810823 0.061483 12.285805
v -8.312174 0.061483 -0.749557
v -8.312174 0.061483 12.285805
v -8.833562 0.061483 -0.749557
v -8.833562 0.061483 12.285805
v -9.354949 0.061483 -0.749557
v -9.354949 0.061483 12.285805
v -9.856300 0.061483 -0.749557
v -9.856300 0.061483 12.285805
v -10.318348 0.061483 -0.749557
v -10.318348 0.061483 12.285805
v -10.723335 0.061483 -0.749557
v -10.723335 0.061483 12.285805
v -12.004719 0.079922 -0.749557
v -12.004719 0.079923 12.285805
v -12.357162 0.739299 -0.749557
v -12.357162 0.739300 12.285805
v -12.574195 1.454764 -0.749557
v -12.574195 1.454765 12.285805
v -12.632300 1.840809 -0.749557
v -12.632300 1.840809 12.285805
v -12.574194 2.340660 -0.749557
v -12.574194 2.340661 12.285805
v -12.357159 3.056125 -0.749557
v -12.357159 3.056125 12.285805
v -12.004715 3.715500 -0.749557
v -12.004715 3.715501 12.285805
v -11.530404 4.293447 -0.749557
v -11.530404 4.293448 12.285805
v -10.952456 4.767756 -0.749557
v -10.952456 4.767757 12.285805
v -10.293078 5.120200 -0.749557
v -10.293078 5.120200 12.285805
v -9.577614 5.337232 -0.749557
v -9.577614 5.337233 12.285804
v -8.833561 3.300521 -0.749557
v -8.542032 3.271808 -0.749557
v -8.539748 3.185508 12.285805
v -8.833561 3.214446 12.285805
v -8.261706 3.186772 -0.749557
v -8.257226 3.099806 12.285805
v -8.003357 3.048681 -0.749557
v -7.996853 2.960634 12.285805
v -7.776912 2.862843 -0.749557
v -7.768634 2.773339 12.285805
v -7.591073 2.636397 -0.749557
v -7.581339 2.545120 12.285805
v -7.452983 2.378048 -0.749557
v -7.442166 2.284746 12.285805
v -7.367947 2.097723 -0.749557
v -7.356464 2.002224 12.285805
v -7.339233 1.806194 -0.749557
v -7.327527 1.708411 12.285805
v -7.367947 1.514665 -0.749557
v -7.356464 1.414599 12.285805
v -7.452982 1.234340 -0.749557
v -7.442166 1.132077 12.285805
v -7.591073 0.975990 -0.749557
v -7.581339 0.871704 12.285805
v -7.776912 0.749545 -0.749557
v -7.768634 0.643485 12.285805
v -8.003357 0.563706 -0.749557
v -7.996853 0.456190 12.285805
v -8.261707 0.425615 -0.749557
v -8.257227 0.317017 12.285805
v -8.542032 0.340579 -0.749557
v -8.539748 0.231315 12.285805
v -8.833562 0.311866 -0.749557
v -8.833562 0.202377 12.285805
v -9.125091 0.340580 -0.749557
v -9.127375 0.231315 12.285805
v -9.405416 0.425616 -0.749557
v -9.409896 0.317018 12.285805
v -9.663766 0.563706 -0.749557
v -9.670270 0.456190 12.285805
v -9.890210 0.749545 -0.749557
v -9.898489 0.643485 12.285805
v -10.076050 0.975991 -0.749557
v -10.085784 0.871705 12.285805
v -10.214140 1.234340 -0.749557
v -10.224957 1.132078 12.285805
v -10.299175 1.514666 -0.749557
v -10.310658 1.414600 12.285805
v -10.327888 1.806195 -0.749557
v -10.339596 1.708413 12.285805
v -10.299174 2.097724 -0.749557
v -10.310658 2.002226 12.285805
v -10.214139 2.378050 -0.749557
v -10.224955 2.284748 12.285805
v -10.076048 2.636399 -0.749557
v -10.085782 2.545121 12.285805
v -9.890208 2.862844 -0.749557
v -9.898487 2.773340 12.285805
v -9.663763 3.048683 -0.749557
v -9.670267 2.960635 12.285805
v -9.405414 3.186773 -0.749557
v -9.409894 3.099807 12.285805
v -9.125087 3.271809 -0.749557
v -9.127371 3.185509 12.285805
vt 1.000000 0.500000
vt 0.968750 0.500000
vt 0.968750 1.000000
vt 1.000000 1.000000
vt 0.937500 0.500000
vt 0.937500 1.000000
vt 0.906250 0.500000
vt 0.906250 1.000000
vt 0.875000 0.500000
vt 0.875000 1.000000
vt 0.843750 0.500000
vt 0.843750 1.000000
vt 0.812500 0.500000
vt 0.812500 1.000000
vt 0.781250 0.500000
vt 0.781250 1.000000
vt 0.750000 0.500000
vt 0.750000 1.000000
vt 0.718750 0.500000
vt 0.718750 1.000000
vt 0.687500 0.500000
vt 0.687500 1.000000
vt 0.656250 0.500000
vt 0.656250 1.000000
vt 0.625000 0.500000
vt 0.625000 1.000000
vt 0.593750 0.500000
vt 0.593750 1.000000
vt 0.562500 0.500000
vt 0.562500 1.000000
vt 0.531250 0.500000
vt 0.531250 1.000000
vt 0.500000 0.500000
vt 0.500000 1.000000
vt 0.468750 0.500000
vt 0.468750 1.000000
vt 0.437500 0.500000
vt 0.437500 1.000000
vt 0.406250 0.500000
vt 0.406250 1.000000
vt 0.375000 0.500000
vt 0.375000 1.000000
vt 0.343750 0.500000
vt 0.343750 1.000000
vt 0.312500 0.500000
vt 0.312500 1.000000
vt 0.281250 0.500000
vt 0.281250 1.000000
vt 0.250000 0.500000
vt 0.250000 1.000000
vt 0.218750 0.500000
vt 0.218750 1.000000
vt 0.187500 0.500000
vt 0.187500 1.000000
vt 0.156250 0.500000
vt 0.156250 1.000000
vt 0.125000 0.500000
vt 0.125000 1.000000
vt 0.093750 0.500000
vt 0.093750 1.000000
vt 0.062500 0.500000
vt 0.062500 1.000000
vt 0.031250 0.500000
vt 0.031250 1.000000
vt 0.000000 0.500000
vt 0.000000 1.000000
vt 0.778910 0.395341
vt 0.796822 0.485388
vt 0.750000 0.490000
vt 0.750000 0.398188
vt 0.250000 0.398188
vt 0.250000 0.490000
vt 0.296822 0.485388
vt 0.278910 0.395341
vt 0.806709 0.386908
vt 0.841844 0.471731
vt 0.341844 0.471731
vt 0.306709 0.386908
vt 0.832329 0.373214
vt 0.883337 0.449553
vt 0.383337 0.449553
vt 0.332329 0.373214
vt 0.854785 0.354785
vt 0.919706 0.419706
vt 0.419706 0.419706
vt 0.354785 0.354785
vt 0.873214 0.332329
vt 0.949553 0.383337
vt 0.449553 0.383337
vt 0.373214 0.332329
vt 0.886908 0.306709
vt 0.971731 0.341844
vt 0.471731 0.341844
vt 0.386908 0.306709
vt 0.895341 0.278910
vt 0.985388 0.296822
vt 0.485388 0.296822
vt 0.395341 0.278910
vt 0.898188 0.250000
vt 0.990000 0.250000
vt 0.490000 0.250000
vt 0.398188 0.250000
vt 0.895341 0.221090
vt 0.985388 0.203178
vt 0.485388 0.203178
vt 0.395341 0.221090
vt 0.886908 0.193291
vt 0.971731 0.158156
vt 0.471731 0.158156
vt 0.386908 0.193291
vt 0.873214 0.167671
vt 0.949553 0.116663
vt 0.449553 0.116663
vt 0.373214 0.167671
vt 0.854785 0.145215
vt 0.919706 0.080294
vt 0.419706 0.080294
vt 0.354785 0.145215
vt 0.832329 0.126786
vt 0.883337 0.050447
vt 0.383337 0.050447
vt 0.332329 0.126786
vt 0.806709 0.113092
vt 0.841844 0.028269
vt 0.341844 0.028269
vt 0.306709 0.113092
vt 0.778910 0.104659
vt 0.796822 0.014612
vt 0.296822 0.014612
vt 0.278910 0.104659
vt 0.750000 0.101812
vt 0.750000 0.010000
vt 0.250000 0.010000
vt 0.250000 0.101812
vt 0.721090 0.104659
vt 0.703178 0.014612
vt 0.203178 0.014612
vt 0.221090 0.104659
vt 0.693291 0.113092
vt 0.658156 0.028269
vt 0.158156 0.028269
vt 0.193291 0.113092
vt 0.667671 0.126786
vt 0.616663 0.050447
vt 0.116663 0.050447
vt 0.167671 0.126786
vt 0.645215 0.145215
vt 0.580294 0.080294
vt 0.080294 0.080294
vt 0.145215 0.145215
vt 0.626786 0.167671
vt 0.550447 0.116663
vt 0.050447 0.116663
vt 0.126786 0.167671
vt 0.613092 0.193291
vt 0.528269 0.158156
vt 0.028269 0.158156
vt 0.113092 0.193291
vt 0.604659 0.221090
vt 0.514611 0.203179
vt 0.014611 0.203179
vt 0.104659 0.221090
vt 0.601812 0.250000
vt 0.510000 0.250000
vt 0.010000 0.250000
vt 0.101812 0.250000
vt 0.604659 0.278910
vt 0.514612 0.296822
vt 0.014612 0.296822
vt 0.104659 0.278910
vt 0.613092 0.306709
vt 0.528269 0.341844
vt 0.028269 0.341844
vt 0.113092 0.306709
vt 0.626786 0.332329
vt 0.550447 0.383337
vt 0.050447 0.383337
vt 0.126786 0.332329
vt 0.645215 0.354785
vt 0.580295 0.419706
vt 0.080295 0.419706
vt 0.145215 0.354785
vt 0.667671 0.373214
vt 0.616663 0.449553
vt 0.116663 0.449553
vt 0.167671 0.373214
vt 0.693291 0.386908
vt 0.658156 0.471731
vt 0.158156 0.471731
vt 0.193291 0.386908
vt 0.721090 0.395341
vt 0.703179 0.485389
vt 0.203179 0.485389
vt 0.221090 0.395341
vn -0.0980 -0.9952 0.0000
vn -0.2903 -0.9569 0.0000
vn -0.4714 -0.8819 0.0000
vn -0.6344 -0.7730 0.0000
vn -0.7730 -0.6344 0.0000
vn -0.8819 -0.4714 0.0000
vn -0.9569 -0.2903 0.0000
vn -0.9951 -0.0991 0.0000
vn -0.9918 0.1279 -0.0000
vn -0.9569 0.2903 -0.0000
vn -0.8819 0.4714 -0.0000
vn -0.0144 0.9999 -0.0000
vn 0.0000 1.0000 -0.0000
vn 0.0144 0.9999 -0.0000
vn 0.8819 0.4714 -0.0000
vn 0.9569 0.2903 -0.0000
vn 0.9889 0.1488 -0.0000
vn 0.9933 -0.1155 0.0000
vn 0.9569 -0.2903 0.0000
vn 0.8819 -0.4714 0.0000
vn 0.7730 -0.6344 0.0000
vn 0.6344 -0.7730 0.0000
vn 0.4714 -0.8819 0.0000
vn 0.2903 -0.9569 0.0000
vn 0.0980 -0.9952 0.0000
vn 0.0000 0.0000 1.0000
vn 0.0000 -0.0000 -1.0000
usemtl None
s off
f 1/1/1 3/2/1 4/3/1 2/4/1
f 3/2/2 5/5/2 6/6/2 4/3/2
f 5/5/3 7/7/3 8/8/3 6/6/3
f 7/7/4 9/9/4 10/10/4 8/8/4
f 9/9/5 11/11/5 12/12/5 10/10/5
f 11/11/6 13/13/6 14/14/6 12/12/6
f 13/13/7 15/15/7 16/16/7 14/14/7
f 15/15/8 17/17/8 18/18/8 16/16/8
f 17/17/9 19/19/9 20/20/9 18/18/9
f 19/19/10 21/21/10 22/22/10 20/20/10
f 21/21/11 23/23/11 24/24/11 22/22/11
f 23/23/12 25/25/12 26/26/12 24/24/12
f 25/25/13 27/27/13 28/28/13 26/26/13
f 27/27/13 29/29/13 30/30/13 28/28/13
f 29/29/13 31/31/13 32/32/13 30/30/13
f 31/31/13 33/33/13 34/34/13 32/32/13
f 33/33/13 35/35/13 36/36/13 34/34/13
f 35/35/13 37/37/13 38/38/13 36/36/13
f 37/37/13 39/39/13 40/40/13 38/38/13
f 39/39/13 41/41/13 42/42/13 40/40/13
f 41/41/14 43/43/14 44/44/14 42/42/14
f 43/43/15 45/45/15 46/46/15 44/44/15
f 45/45/16 47/47/16 48/48/16 46/46/16
f 47/47/17 49/49/17 50/50/17 48/48/17
f 49/49/18 51/51/18 52/52/18 50/50/18
f 51/51/19 53/53/19 54/54/19 52/52/19
f 53/53/20 55/55/20 56/56/20 54/54/20
f 55/55/21 57/57/21 58/58/21 56/56/21
f 57/57/22 59/59/22 60/60/22 58/58/22
f 59/59/23 61/61/23 62/62/23 60/60/23
f 61/61/24 63/63/24 64/64/24 62/62/24
f 63/63/25 1/65/25 2/66/25 64/64/25
f 66/67/26 3/68/26 1/69/26 65/70/26
f 68/71/27 2/72/27 4/73/27 67/74/27
f 69/75/26 5/76/26 3/68/26 66/67/26
f 67/74/27 4/73/27 6/77/27 70/78/27
f 71/79/26 7/80/26 5/76/26 69/75/26
f 70/78/27 6/77/27 8/81/27 72/82/27
f 73/83/26 9/84/26 7/80/26 71/79/26
f 72/82/27 8/81/27 10/85/27 74/86/27
f 75/87/26 11/88/26 9/84/26 73/83/26
f 74/86/27 10/85/27 12/89/27 76/90/27
f 77/91/26 13/92/26 11/88/26 75/87/26
f 76/90/27 12/89/27 14/93/27 78/94/27
f 79/95/26 15/96/26 13/92/26 77/91/26
f 78/94/27 14/93/27 16/97/27 80/98/27
f 81/99/26 17/100/26 15/96/26 79/95/26
f 80/98/27 16/97/27 18/101/27 82/102/27
f 83/103/26 19/104/26 17/100/26 81/99/26
f 82/102/27 18/101/27 20/105/27 84/106/27
f 85/107/26 21/108/26 19/104/26 83/103/26
f 84/106/27 20/105/27 22/109/27 86/110/27
f 87/111/26 23/112/26 21/108/26 85/107/26
f 86/110/27 22/109/27 24/113/27 88/114/27
f 89/115/26 25/116/26 23/112/26 87/111/26
f 88/114/27 24/113/27 26/117/27 90/118/27
f 91/119/26 27/120/26 25/116/26 89/115/26
f 90/118/27 26/117/27 28/121/27 92/122/27
f 93/123/26 29/124/26 27/120/26 91/119/26
f 92/122/27 28/121/27 30/125/27 94/126/27
f 95/127/26 31/128/26 29/124/26 93/123/26
f 94/126/27 30/125/27 32/129/27 96/130/27
f 97/131/26 33/132/26 31/128/26 95/127/26
f 96/130/27 32/129/27 34/133/27 98/134/27
f 99/135/26 35/136/26 33/132/26 97/131/26
f 98/134/27 34/133/27 36/137/27 100/138/27
f 101/139/26 37/140/26 35/136/26 99/135/26
f 100/138/27 36/137/27 38/141/27 102/142/27
f 103/143/26 39/144/26 37/140/26 101/139/26
f 102/142/27 38/141/27 40/145/27 104/146/27
f 105/147/26 41/148/26 39/144/26 103/143/26
f 104/146/27 40/145/27 42/149/27 106/150/27
f 107/151/26 43/152/26 41/148/26 105/147/26
f 106/150/27 42/149/27 44/153/27 108/154/27
f 109/155/26 45/156/26 43/152/26 107/151/26
f 108/154/27 44/153/27 46/157/27 110/158/27
f 111/159/26 47/160/26 45/156/26 109/155/26
f 110/158/27 46/157/27 48/161/27 112/162/27
f 113/163/26 49/164/26 47/160/26 111/159/26
f 112/162/27 48/161/27 50/165/27 114/166/27
f 115/167/26 51/168/26 49/164/26 113/163/26
f 114/166/27 50/165/27 52/169/27 116/170/27
f 117/171/26 53/172/26 51/168/26 115/167/26
f 116/170/27 52/169/27 54/173/27 118/174/27
f 119/175/26 55/176/26 53/172/26 117/171/26
f 118/174/27 54/173/27 56/177/27 120/178/27
f 121/179/26 57/180/26 55/176/26 119/175/26
f 120/178/27 56/177/27 58/181/27 122/182/27
f 123/183/26 59/184/26 57/180/26 121/179/26
f 122/182/27 58/181/27 60/185/27 124/186/27
f 125/187/26 61/188/26 59/184/26 123/183/26
f 124/186/27 60/185/27 62/189/27 126/190/27
f 127/191/26 63/192/26 61/188/26 125/187/26
f 126/190/27 62/189/27 64/193/27 128/194/27
f 65/70/26 1/69/26 63/192/26 127/191/26
f 128/194/27 64/193/27 2/72/27 68/71/27
