# Blender v2.80 (sub 75) OBJ File: 'ld45.blend'
# www.blender.org
mtllib windowglass.mtl
o Cylinder.006_Cylinder.003
v 0.002754 3.068488 37.569138
v 0.002754 3.068488 37.920662
v 0.524638 2.964678 37.569138
v 0.524638 2.964678 37.920662
v 0.967071 2.669054 37.569138
v 0.967071 2.669055 37.920662
v 1.262695 2.226622 37.569138
v 1.262695 2.226622 37.920662
v 1.366504 1.704737 37.569138
v 1.366504 1.704737 37.920662
v 1.262695 1.182853 37.569138
v 1.262695 1.182853 37.920662
v 0.967071 0.740420 37.569138
v 0.967071 0.740421 37.920662
v 0.524639 0.444796 37.569138
v 0.524639 0.444797 37.920662
v 0.002754 0.340987 37.569138
v 0.002754 0.340987 37.920662
v -0.519130 0.444796 37.569138
v -0.519130 0.444796 37.920662
v -0.961563 0.740420 37.569138
v -0.961563 0.740420 37.920662
v -1.257187 1.182853 37.569138
v -1.257187 1.182853 37.920662
v -1.360996 1.704737 37.569138
v -1.360996 1.704738 37.920662
v -1.257187 2.226622 37.569138
v -1.257187 2.226622 37.920662
v -0.961563 2.669055 37.569138
v -0.961563 2.669055 37.920662
v -0.519130 2.964678 37.569138
v -0.519130 2.964679 37.920662
v 0.258356 2.321815 38.642696
v 0.002754 2.372657 38.642696
v 0.475044 2.177028 38.642696
v 0.619831 1.960339 38.642696
v 0.670673 1.704738 38.642696
v 0.619831 1.449136 38.642696
v 0.475044 1.232447 38.642696
v 0.258356 1.087661 38.642696
v 0.002754 1.036818 38.642696
v -0.252848 1.087661 38.642696
v -0.469536 1.232447 38.642696
v -0.614323 1.449136 38.642696
v -0.665166 1.704738 38.642696
v -0.614323 1.960339 38.642696
v -0.469536 2.177028 38.642696
v -0.252847 2.321815 38.642696
v 0.367088 2.584317 38.444382
v 0.002754 2.656788 38.444382
v 0.675955 2.377939 38.444382
v 0.882334 2.069072 38.444382
v 0.954804 1.704738 38.444382
v 0.882334 1.340404 38.444382
v 0.675955 1.031536 38.444382
v 0.367088 0.825158 38.444382
v 0.002754 0.752687 38.444382
v -0.361580 0.825158 38.444382
v -0.670447 1.031536 38.444382
v -0.876826 1.340404 38.444382
v -0.949296 1.704738 38.444382
v -0.876826 2.069072 38.444382
v -0.670447 2.377939 38.444382
v -0.361580 2.584318 38.444382
vt -0.188146 0.368061
vt -0.203710 0.357431
vt -0.194571 0.335145
vt -0.176121 0.339011
vt -0.194649 0.311055
vt -0.176121 0.307571
vt -0.203932 0.288820
vt -0.188145 0.278515
vt -0.221011 0.271833
vt -0.210371 0.256272
vt -0.243287 0.262684
vt -0.239417 0.244236
vt -0.267365 0.262764
vt -0.270854 0.244240
vt -0.289583 0.272059
vt -0.299899 0.256278
vt -0.306554 0.289152
vt -0.322131 0.278520
vt -0.315692 0.311444
vt -0.334144 0.307583
vt -0.315612 0.335529
vt -0.334133 0.339017
vt -0.306330 0.357750
vt -0.322106 0.368054
vt -0.289256 0.374724
vt -0.299888 0.390280
vt -0.266986 0.383871
vt -0.270856 0.402312
vt -0.242909 0.383798
vt -0.239425 0.402319
vt -0.225746 0.304274
vt -0.235237 0.294448
vt -0.220686 0.374514
vt -0.210378 0.390294
vt -0.232940 0.328274
vt -0.236494 0.336416
vt -0.242906 0.342544
vt -0.251203 0.345722
vt -0.260106 0.345550
vt -0.268232 0.341977
vt -0.274349 0.335551
vt -0.277520 0.327248
vt -0.277335 0.318330
vt -0.273736 0.310178
vt -0.267329 0.304011
vt -0.259045 0.300796
vt -0.250176 0.300978
vt -0.242068 0.304572
vt -0.235954 0.311012
vt -0.232796 0.319345
vt -0.283903 0.303359
vt -0.289329 0.315913
vt -0.262519 0.357529
vt -0.248862 0.357743
vt -0.220937 0.330676
vt -0.220734 0.317003
vt -0.261405 0.288806
vt -0.274103 0.293842
vt -0.284538 0.342290
vt -0.275049 0.352104
vt -0.247760 0.289016
vt -0.289548 0.329578
vt -0.236155 0.352726
vt -0.226349 0.343224
vn 0.1951 0.9808 0.0000
vn 0.5556 0.8315 0.0000
vn 0.8315 0.5556 -0.0000
vn 0.9808 0.1951 -0.0000
vn 0.9808 -0.1951 0.0000
vn 0.8315 -0.5556 0.0000
vn 0.5556 -0.8315 0.0000
vn 0.1951 -0.9808 0.0000
vn -0.1951 -0.9808 0.0000
vn -0.5556 -0.8315 0.0000
vn -0.8315 -0.5556 0.0000
vn -0.9808 -0.1951 0.0000
vn -0.9808 0.1951 -0.0000
vn -0.8315 0.5556 -0.0000
vn 0.7767 0.1545 0.6106
vn -0.5556 0.8315 -0.0000
vn -0.1951 0.9808 0.0000
vn 0.0000 0.0000 1.0000
vn -0.1545 -0.7767 0.6106
vn -0.6585 0.4400 0.6106
vn 0.4400 0.6585 0.6106
vn 0.4400 -0.6585 0.6106
vn -0.7767 -0.1545 0.6106
vn 0.7767 -0.1545 0.6106
vn -0.4400 -0.6585 0.6106
vn -0.4400 0.6585 0.6106
vn 0.6585 0.4400 0.6106
vn 0.1545 -0.7767 0.6106
vn 0.1545 0.7767 0.6106
vn -0.7767 0.1545 0.6106
vn 0.6585 -0.4400 0.6106
vn -0.6585 -0.4400 0.6106
vn -0.1545 0.7767 0.6106
vn 0.1131 0.5687 0.8148
vn 0.3221 0.4821 0.8148
vn 0.4821 0.3221 0.8148
vn 0.5687 0.1131 0.8148
vn 0.5687 -0.1131 0.8147
vn 0.4821 -0.3221 0.8148
vn 0.3221 -0.4821 0.8147
vn 0.1131 -0.5687 0.8148
vn -0.1131 -0.5687 0.8148
vn -0.3221 -0.4821 0.8148
vn -0.4821 -0.3221 0.8148
vn -0.5687 -0.1131 0.8147
vn -0.5687 0.1131 0.8148
vn -0.4821 0.3221 0.8147
vn -0.3221 0.4821 0.8148
vn -0.1131 0.5687 0.8147
usemtl None
s off
f 1/1/1 2/2/1 4/3/1 3/4/1
f 3/4/2 4/3/2 6/5/2 5/6/2
f 5/6/3 6/5/3 8/7/3 7/8/3
f 7/8/4 8/7/4 10/9/4 9/10/4
f 9/10/5 10/9/5 12/11/5 11/12/5
f 11/12/6 12/11/6 14/13/6 13/14/6
f 13/14/7 14/13/7 16/15/7 15/16/7
f 15/16/8 16/15/8 18/17/8 17/18/8
f 17/18/9 18/17/9 20/19/9 19/20/9
f 19/20/10 20/19/10 22/21/10 21/22/10
f 21/22/11 22/21/11 24/23/11 23/24/11
f 23/24/12 24/23/12 26/25/12 25/26/12
f 25/26/13 26/25/13 28/27/13 27/28/13
f 27/28/14 28/27/14 30/29/14 29/30/14
f 10/9/15 8/7/15 52/31/15 53/32/15
f 29/30/16 30/29/16 32/33/16 31/34/16
f 31/34/17 32/33/17 2/2/17 1/1/17
f 33/35/18 34/36/18 48/37/18 47/38/18 46/39/18 45/40/18 44/41/18 43/42/18 42/43/18 41/44/18 40/45/18 39/46/18 38/47/18 37/48/18 36/49/18 35/50/18
f 20/19/19 18/17/19 57/51/19 58/52/19
f 30/29/20 28/27/20 62/53/20 63/54/20
f 6/5/21 4/3/21 49/55/21 51/56/21
f 16/15/22 14/13/22 55/57/22 56/58/22
f 26/25/23 24/23/23 60/59/23 61/60/23
f 12/11/24 10/9/24 53/32/24 54/61/24
f 22/21/25 20/19/25 58/52/25 59/62/25
f 32/33/26 30/29/26 63/54/26 64/63/26
f 8/7/27 6/5/27 51/56/27 52/31/27
f 18/17/28 16/15/28 56/58/28 57/51/28
f 4/3/29 2/2/29 50/64/29 49/55/29
f 28/27/30 26/25/30 61/60/30 62/53/30
f 14/13/31 12/11/31 54/61/31 55/57/31
f 24/23/32 22/21/32 59/62/32 60/59/32
f 2/2/33 32/33/33 64/63/33 50/64/33
f 34/36/34 33/35/34 49/55/34 50/64/34
f 33/35/35 35/50/35 51/56/35 49/55/35
f 35/50/36 36/49/36 52/31/36 51/56/36
f 36/49/37 37/48/37 53/32/37 52/31/37
f 37/48/38 38/47/38 54/61/38 53/32/38
f 38/47/39 39/46/39 55/57/39 54/61/39
f 39/46/40 40/45/40 56/58/40 55/57/40
f 40/45/41 41/44/41 57/51/41 56/58/41
f 41/44/42 42/43/42 58/52/42 57/51/42
f 42/43/43 43/42/43 59/62/43 58/52/43
f 43/42/44 44/41/44 60/59/44 59/62/44
f 44/41/45 45/40/45 61/60/45 60/59/45
f 45/40/46 46/39/46 62/53/46 61/60/46
f 46/39/47 47/38/47 63/54/47 62/53/47
f 47/38/48 48/37/48 64/63/48 63/54/48
f 48/37/49 34/36/49 50/64/49 64/63/49
